<svg id="Capa_1" enable-background="new 0 0 512 512" height="512" viewBox="0 0 512 512" width="512" xmlns="http://www.w3.org/2000/svg"><path d="m156.276 192.325-21.258 12.274c-2.391 1.381-3.211 4.439-1.83 6.83l10.828 18.755c1.381 2.391 4.439 3.211 6.83 1.83l21.258-12.273z" fill="#89a8ec"/><path d="m492.904 28.752-10.827-18.754c-1.381-2.391-4.439-3.211-6.83-1.83l-255.706 147.631 15.828 27.415 255.705-147.632c2.392-1.38 3.211-4.438 1.83-6.83z" fill="#89a8ec"/><g fill="#718dd9"><path d="m156.276 192.325-21.258 12.274c-2.391 1.381-3.211 4.439-1.83 6.83l6.218 10.77c.311-1.282 1.117-2.441 2.349-3.152l22.462-12.968z"/><path d="m482.077 9.998c-1.381-2.391-4.439-3.211-6.83-1.83l-255.706 147.631 7.94 13.753 256.432-148.051c1.504-.869 3.271-.864 4.72-.147z"/><path d="m183.549 239.563c1.603 2.776 2.447 5.926 2.447 9.132v78.045h69.785c5.312-2.331 10.551-4.971 15.692-7.94 22.986-13.271 41.364-31.442 54.628-52.42 3.718-5.881 1.868-13.663-4.158-17.142l-68.444-39.516c-2.776-1.603-5.082-3.908-6.685-6.685l-36.176-62.659c-1.381-2.391-4.439-3.211-6.83-1.83l-54.605 31.526c-2.391 1.381-3.211 4.439-1.83 6.83z"/></g><path d="m185.996 309.56c10.048-.729 20.094-2.42 30-5.112v-48.421c0-3.206-.844-6.355-2.447-9.131l-36.176-62.659c-1.381-2.391-.561-5.449 1.83-6.83l39.61-22.869-8.175-14.16c-1.381-2.391-4.439-3.211-6.83-1.83l-54.605 31.526c-2.391 1.381-3.211 4.439-1.83 6.83l36.176 62.659c1.603 2.776 2.447 5.926 2.447 9.132z" fill="#5876b7"/><path d="m255.781 326.74c5.312-2.331 10.551-4.971 15.692-7.94 23.02-13.29 41.418-31.495 54.685-52.511 3.691-5.846 1.772-13.594-4.216-17.051l-16.06-9.272c-13.052 19.449-30.613 36.3-52.267 48.802-21.414 12.363-44.51 19.118-67.62 20.793v17.179z" fill="#cfdef2"/><path d="m215.996 326.74v-22.291c-9.906 2.693-19.952 4.384-30 5.112v17.179z" fill="#b5c4e4"/><path d="m80.568 346.682c19.917 11.499 31.303 32.09 31.964 53.504-18.875 10.135-42.4 10.57-62.317-.93-18.866-10.892-30.077-29.941-31.77-50.121-.173-2.06.962-4.026 2.833-4.907 18.322-8.623 40.424-8.438 59.29 2.454z" fill="#09a76d"/><path d="m65.548 383.922c-17.022-9.827-27.785-26.301-30.975-44.247-4.576 1.029-9.039 2.55-13.295 4.553-1.87.88-3.006 2.847-2.833 4.907 1.693 20.179 12.904 39.228 31.77 50.12 19.917 11.499 43.442 11.064 62.317.93-.096-3.113-.426-6.207-.968-9.26-15.129 3.406-31.527 1.363-46.016-7.003z" fill="#02905d"/><path d="m365.028 416.103v-79.363c0-5.523-4.477-10-10-10h-211.332c-5.523 0-10 4.477-10 10v79.363c0 10.308-5.292 19.895-14.016 25.387l-14.186 8.932c-2.908 1.831-4.672 5.026-4.672 8.462v45.616h297.079v-45.616c0-3.436-1.764-6.632-4.672-8.462l-14.186-8.932c-8.723-5.492-14.015-15.079-14.015-25.387z" fill="#d88a55"/><path d="m143.696 326.74c-5.523 0-10 4.477-10 10v79.364c0 10.308-5.292 19.895-14.016 25.387l-14.186 8.932c-2.908 1.831-4.672 5.026-4.672 8.462v45.615h40v-35.616c0-3.436 1.764-6.632 4.672-8.462l12.763-8.036v-11.197c0-4.143 3.358-7.5 7.5-7.5 2.454 0 4.625 1.184 5.994 3.005 1.261-3.338 1.944-6.916 1.944-10.591v-99.363z" fill="#c57a44"/><path d="m499.4 25.003-10.828-18.755c-3.447-5.969-11.107-8.022-17.075-4.575l-249.21 143.881-5.153-8.926c-1.669-2.892-4.365-4.96-7.59-5.824-3.225-.862-6.594-.421-9.485 1.249l-54.605 31.526c-2.892 1.67-4.96 4.365-5.824 7.59-.864 3.226-.42 6.594 1.249 9.485l5.153 8.926-14.763 8.523c-5.969 3.446-8.021 11.106-4.575 17.075l10.828 18.755c1.669 2.892 4.365 4.96 7.59 5.824 1.077.288 2.169.432 3.255.432 2.166 0 4.304-.568 6.229-1.681l14.763-8.524 7.695 13.327c.944 1.635 1.442 3.495 1.442 5.382v70.545h-34.8c-9.649 0-17.5 7.851-17.5 17.5v62.675l-6.427-3.71c-2.068-23.229-15.094-43.765-35.451-55.517-20.267-11.699-45.026-12.727-66.236-2.743-4.687 2.207-7.544 7.157-7.111 12.318 1.959 23.358 15.228 44.288 35.494 55.989 11.114 6.417 23.401 9.634 35.712 9.634 10.237 0 20.49-2.229 30.094-6.69l13.905 8.028c-.204 7.534-4.086 14.387-10.492 18.42l-14.187 8.932c-5.119 3.224-8.175 8.76-8.175 14.809v38.117h-46.071c-4.142 0-7.5 3.357-7.5 7.5s3.358 7.5 7.5 7.5h404.222c4.142 0 7.5-3.357 7.5-7.5s-3.358-7.5-7.5-7.5h-46.072v-38.116c0-6.049-3.056-11.585-8.176-14.809l-14.186-8.932c-6.582-4.145-10.512-11.263-10.512-19.041v-21.436c0-4.143-3.358-7.5-7.5-7.5s-7.5 3.357-7.5 7.5v21.436c0 12.964 6.549 24.827 17.52 31.734l14.186 8.932c.731.461 1.168 1.251 1.168 2.115v38.117h-282.079v-38.116c0-.864.437-1.654 1.168-2.115l14.186-8.932c10.97-6.907 17.52-18.771 17.52-31.734v-79.363c0-1.379 1.122-2.5 2.5-2.5h21.867v44.854c0 4.143 3.358 7.5 7.5 7.5s7.5-3.357 7.5-7.5v-44.854h174.465c1.378 0 2.5 1.121 2.5 2.5v22.594c0 4.143 3.358 7.5 7.5 7.5s7.5-3.357 7.5-7.5v-22.594c0-9.649-7.851-17.5-17.5-17.5h-70.137c19.021-12.813 35.327-29.52 47.549-48.852 2.873-4.544 3.785-10.133 2.503-15.335-1.292-5.24-4.576-9.611-9.25-12.311l-68.443-39.515c-1.635-.945-2.998-2.308-3.941-3.94l-7.695-13.328 172.548-99.62c3.587-2.071 4.816-6.658 2.745-10.245-2.071-3.588-6.658-4.815-10.245-2.745l-172.548 99.62-8.328-14.425 247.045-142.631 8.328 14.425-44.203 25.52c-3.587 2.071-4.816 6.658-2.745 10.245s6.659 4.815 10.245 2.745l46.369-26.77c5.969-3.447 8.021-11.108 4.575-17.075zm-436.105 355.416 31.897 18.416c-13.846 3.304-28.512 1.267-41.227-6.074-15.499-8.948-25.818-24.732-27.87-42.479 16.395-7.096 35.224-6.053 50.723 2.896 12.716 7.342 21.813 19.024 25.874 32.668l-31.897-18.416c-3.587-2.071-8.174-.844-10.245 2.745-2.071 3.586-.842 8.173 2.745 10.244zm85.966-156.151-8.328-14.425 12.598-7.273 8.328 14.425zm91.058-17.481c2.257 3.91 5.518 7.17 9.43 9.43l45.24 26.119c-11.68 15.569-26.1 28.562-42.975 38.673-3.553 2.129-4.708 6.735-2.579 10.288 1.406 2.347 3.891 3.646 6.441 3.646 1.312 0 2.641-.344 3.848-1.067 19.08-11.432 35.307-26.218 48.341-43.991l10.129 5.848c1.104.638 1.881 1.671 2.187 2.909.314 1.278.095 2.603-.618 3.73-13.14 20.784-30.648 37.583-52.039 49.933-4.424 2.554-8.962 4.857-13.587 6.935h-60.641v-2.869c11.182-1.287 22.211-3.691 32.87-7.208 3.934-1.298 6.07-5.538 4.772-9.472-1.298-3.936-5.54-6.074-9.473-4.772-9.144 3.017-18.59 5.128-28.17 6.34v-52.563c0-4.516-1.194-8.971-3.452-12.882l-34.926-60.493 50.275-29.026z"/><path d="m204.524 380.312v17.045c0 4.143 3.358 7.5 7.5 7.5s7.5-3.357 7.5-7.5v-17.045c0-4.143-3.358-7.5-7.5-7.5s-7.5 3.357-7.5 7.5z"/><path d="m259.313 387.616v49.919c0 4.143 3.358 7.5 7.5 7.5s7.5-3.357 7.5-7.5v-49.919c0-4.143-3.358-7.5-7.5-7.5s-7.5 3.358-7.5 7.5z"/><path d="m331.537 363.266c0-4.143-3.358-7.5-7.5-7.5s-7.5 3.357-7.5 7.5v31.656c0 4.143 3.358 7.5 7.5 7.5s7.5-3.357 7.5-7.5z"/><path d="m165.758 433.689c-4.142 0-7.5 3.357-7.5 7.5v24.351c0 4.143 3.358 7.5 7.5 7.5s7.5-3.357 7.5-7.5v-24.351c0-4.143-3.358-7.5-7.5-7.5z"/><path d="m324.037 440.993c-4.142 0-7.5 3.357-7.5 7.5v26.786c0 4.143 3.358 7.5 7.5 7.5s7.5-3.357 7.5-7.5v-26.786c0-4.142-3.357-7.5-7.5-7.5z"/></svg>