<?xml version="1.0" encoding="iso-8859-1"?>
<!-- Generator: Adobe Illustrator 19.0.0, SVG Export Plug-In . SVG Version: 6.00 Build 0)  -->
<svg version="1.1" id="Capa_1" xmlns="http://www.w3.org/2000/svg" xmlns:xlink="http://www.w3.org/1999/xlink" x="0px" y="0px"
	 viewBox="0 0 469.997 469.997" style="enable-background:new 0 0 469.997 469.997;" xml:space="preserve">
<g>
	<path style="fill:#FCDB5A;" d="M163.375,342.473l-37.037-37.037L22.67,409.104C17.724,414.05,15,420.627,15,427.622
		c0,6.995,2.724,13.572,7.67,18.518s11.523,7.67,18.519,7.67c6.995,0,13.572-2.724,18.518-7.67L163.375,342.473z"/>
	<path style="fill:#BCC987;" d="M167.495,278.92c-1.956-1.955-4.555-3.032-7.32-3.032c-2.765,0-5.365,1.077-7.32,3.032l-15.91,15.91
		l37.037,37.037l15.91-15.91c4.036-4.036,4.036-10.604,0-14.64L167.495,278.92z"/>
	<path style="fill:#D4ED85;" d="M291.305,179.881c-2.929-2.929-2.929-7.678,0-10.606L443.967,16.612
		c-3.183-0.282-6.483-0.426-9.891-0.426c-67.204,0-167,54.248-220.371,105.974l23.13,101.584l33.256-33.256
		c2.929-2.929,7.678-2.929,10.606,0C280.701,190.491,291.308,179.884,291.305,179.881z"/>
	<path style="fill:#BCC987;" d="M296.608,182.078c-1.918,0-3.836-0.732-5.3-2.194l-10.607,10.607
		c2.926,2.929,2.925,7.675-0.003,10.603l-33.256,33.257l101.581,23.129c50.892-52.645,111.901-161.364,105.573-230.283
		L301.911,179.881C300.447,181.346,298.527,182.078,296.608,182.078z"/>
	<path style="fill:#4D3D36;" d="M466.83,9.774c-0.678-2.662-2.756-4.74-5.417-5.417c-8.263-2.104-17.46-3.17-27.335-3.17
		c-34.222,0-78.707,13.094-125.26,36.869c-41.909,21.403-81.512,49.246-108.656,76.39c-1.823,1.823-2.582,4.455-2.01,6.968
		l26.153,114.862l-39.12,39.121l-7.083-7.083c-4.788-4.789-11.155-7.426-17.926-7.426c-6.772,0-13.139,2.637-17.927,7.426
		L12.064,398.497C4.284,406.277,0,416.62,0,427.622c0,11.001,4.284,21.345,12.064,29.125c7.779,7.78,18.123,12.064,29.125,12.064
		c11.001,0,21.345-4.284,29.125-12.064l130.184-130.184c4.789-4.788,7.426-11.155,7.426-17.926c0-6.772-2.637-13.139-7.426-17.927
		l-4.708-4.708l39.12-39.12l114.862,26.153c0.553,0.125,1.111,0.187,1.665,0.187c1.966,0,3.881-0.774,5.303-2.197
		C415.52,212.246,485.836,84.423,466.83,9.774z M22.67,446.14c-4.946-4.946-7.67-11.523-7.67-18.518
		c0-6.996,2.724-13.572,7.67-18.519l103.667-103.667l37.037,37.037L59.707,446.14c-4.946,4.946-11.523,7.67-18.518,7.67
		C34.193,453.811,27.617,451.087,22.67,446.14z M189.891,315.956l-15.91,15.91l-37.037-37.037l15.91-15.91
		c1.955-1.955,4.555-3.032,7.32-3.032c2.765,0,5.364,1.077,7.32,3.032l22.396,22.396
		C193.927,305.352,193.927,311.92,189.891,315.956z M349.022,257.48l-101.581-23.129l33.256-33.257
		c2.928-2.928,2.929-7.674,0.003-10.603c-2.932-2.932-7.681-2.932-10.609-0.003l-33.256,33.256l-23.13-101.584
		C267.077,70.434,366.873,16.186,434.077,16.186c3.408,0,6.708,0.144,9.891,0.426L291.305,169.275
		c-2.929,2.929-2.929,7.678,0,10.606c1.467,1.465,3.385,2.197,5.303,2.197c1.919,0,3.839-0.732,5.303-2.197L454.596,27.197
		C460.924,96.116,399.914,204.835,349.022,257.48z"/>
</g>
<g>
</g>
<g>
</g>
<g>
</g>
<g>
</g>
<g>
</g>
<g>
</g>
<g>
</g>
<g>
</g>
<g>
</g>
<g>
</g>
<g>
</g>
<g>
</g>
<g>
</g>
<g>
</g>
<g>
</g>
</svg>
