<svg xmlns="http://www.w3.org/2000/svg" xmlns:xlink="http://www.w3.org/1999/xlink" id="Capa_1" x="0" y="0" enable-background="new 0 0 512 512" version="1.1" viewBox="0 0 512 512" xml:space="preserve"><g><path fill="#7CE854" d="M215.307,49.28h-36.103c-1.468,0-2.658,1.19-2.658,2.658v26.277 c0,20.746,16.975,37.721,37.721,37.721h36.103c1.468,0,2.658-1.19,2.658-2.658V87.001C253.028,66.255,236.054,49.28,215.307,49.28z"/><path fill="#7CE854" d="M311.432,43.545V11.754c0-1.468-1.19-2.658-2.658-2.658h-26.313 c-16.188,0-29.433,13.245-29.433,29.433v31.791c0,1.468,1.19,2.658,2.658,2.658h26.313 C298.187,72.977,311.432,59.733,311.432,43.545z"/></g><g><path fill="#6FD844" d="M196.547,78.216V51.939c0-1.468,1.19-2.658,2.658-2.658h-20.001c-1.468,0-2.658,1.19-2.658,2.658 v26.277c0,20.746,16.975,37.721,37.721,37.721h20.001C213.521,115.937,196.547,98.962,196.547,78.216z"/><path fill="#6FD844" d="M273.03,70.319V38.528c0-16.188,13.245-29.433,29.433-29.433h-20.001 c-16.188,0-29.433,13.245-29.433,29.433v31.791c0,1.468,1.19,2.658,2.658,2.658h20.001C274.22,72.977,273.03,71.787,273.03,70.319z"/></g><path fill="#AD7B64" d="M259.616,392.176c10.902-62.509,6.556-57.436,45.256-113.341h0.002	c9.446-13.101,17.39-17.045,73.284-53.796c-11.066-9.347-25.359-14.99-40.978-14.99c-2.93,0-5.808,0.215-8.633,0.599	c-16.055-25.006-44.087-41.588-76.01-41.588s-59.955,16.582-76.01,41.588c-2.825-0.384-5.703-0.599-8.634-0.599	c-14.251,0-27.405,4.69-38.004,12.611c0.367,0.224,0.731,0.435,1.103,0.68c58.272,38.356,66.277,42.192,75.869,55.494h0.003	c38.699,55.904,34.354,50.832,45.256,113.341h7.494V392.176z"/><path fill="#966653" d="M267.248,348.993c-6.232-35.513-10.248-42.481-40.89-87.094c-0.131-0.191-0.266-0.38-0.403-0.566	c-9.58-13.314-17.989-18.853-52.68-41.7c-4.137-2.725-8.689-5.722-13.703-9.036c-11.034,1.444-21.179,5.711-29.68,12.064	c0.367,0.224,0.731,0.435,1.103,0.68c58.272,38.356,66.277,42.192,75.869,55.494h0.003c38.699,55.904,34.354,50.832,45.256,113.341	h7.494C263.074,372.349,264.998,359.324,267.248,348.993z"/><path fill="#F0A479" d="M471.112,95.907c-24.689-4.073-30.162,22.634-30.715,24.812l-34.76,105.293	c0,0-13.286-18.217-32.97-5.155c-54.557,36.193-62.053,39.813-71.033,52.365h-0.003c-36.689,53.417-32.054,47.828-42.763,109.203	h106.204c10.009-15.656,13.685-24.24,28.769-34.249l43.718-29.002c7.312-5.374,22.322-18.979,25.412-41.87	c0.002-0.011,0.003-0.019,0.003-0.026l28.571-147.821C492.17,124.813,493.83,100.416,471.112,95.907z"/><g><path fill="#E59770" d="M321.635,273.223c8.98-12.553,16.476-16.172,71.033-52.365c1.406-0.933,2.762-1.657,4.073-2.209 c-5.792-2.997-14.111-4.402-24.074,2.209c-54.557,36.193-62.054,39.813-71.033,52.365h-0.002 c-36.689,53.417-32.054,47.828-42.763,109.203h20.001c10.709-61.375,6.072-55.785,42.763-109.203H321.635z"/><path fill="#E59770" d="M422.798,234.416l37.6-113.698c0.421-1.656,3.699-17.498,16.11-23.195 c-1.628-0.67-3.414-1.223-5.396-1.616c-24.689-4.073-30.162,22.634-30.715,24.812l-32.168,97.442 C417.807,221.705,422.798,234.416,422.798,234.416z"/></g><path fill="#F0A479" d="M40.391,95.907c24.688-4.073,30.162,22.634,30.715,24.812l34.76,105.293	c0,0,13.286-18.217,32.97-5.155c54.557,36.193,62.053,39.813,71.033,52.365h0.003c36.689,53.417,32.054,47.828,42.763,109.203	H146.429c-10.009-15.656-13.685-24.24-28.769-34.249l-43.718-29.002c-7.312-5.374-22.322-18.979-25.412-41.87	c-0.002-0.011-0.003-0.019-0.003-0.026l-28.57-147.82C19.332,124.813,17.672,100.416,40.391,95.907z"/><g><path fill="#E59770" d="M138.678,348.176L94.96,319.174c-7.312-5.374-22.322-18.979-25.412-41.87 c-0.002-0.011-0.003-0.019-0.003-0.026l-28.57-147.821c-0.565-4.195-1.969-24.505,14.51-31.717 c-3.986-1.951-8.944-2.848-15.095-1.833c-22.718,4.509-21.058,28.906-20.433,33.55l28.571,147.821 c-0.001,0.008,0,0.016,0.002,0.026c3.089,22.89,18.099,36.494,25.412,41.87l43.718,29.002 c15.084,10.009,18.76,18.593,28.769,34.249h21.017C157.437,366.769,153.76,358.185,138.678,348.176z"/><path fill="#E59770" d="M105.882,225.991c-2.21,4.884-4.137,12.387,1.513,17.399c13.87,12.303,52.583,45.937,52.972,46.274 c3.127,2.717,3.46,7.454,0.744,10.582c-2.718,3.128-7.456,3.458-10.582,0.743c-0.39-0.339-39.161-34.023-53.089-46.378 c-15.023-13.326-7.414-33.193-1.198-41.999l3.433-5.352l6.19,18.752C105.866,226.013,105.878,225.997,105.882,225.991z"/><path fill="#E59770" d="M405.621,225.991c2.21,4.884,4.137,12.387-1.513,17.399c-13.87,12.303-52.583,45.937-52.972,46.274 c-3.127,2.717-3.46,7.454-0.744,10.582c2.718,3.128,7.456,3.458,10.582,0.743c0.39-0.339,39.161-34.023,53.089-46.378 c15.023-13.326,7.414-33.193,1.198-41.999l-3.433-5.352l-6.19,18.752C405.637,226.013,405.625,225.997,405.621,225.991z"/></g><g><path fill="#00C3FF" d="M255.752,423.78v71.316c0,5.469,4.433,9.904,9.904,9.904h126.919c5.151,0,9.327-4.176,9.327-9.327 c0-87.279,0,13.545,0-71.892H255.752V423.78z"/><path fill="#00C3FF" d="M255.751,423.78v71.316c0,5.469-4.433,9.904-9.904,9.904H118.929c-5.151,0-9.327-4.176-9.327-9.327 c0-14.501,0-57.438,0-71.892h146.148V423.78z"/></g><g><path fill="#00AAF0" d="M276.041,495.096V423.78h-20.289v71.316c0,5.469,4.433,9.904,9.904,9.904h20.289 C280.475,505,276.041,500.565,276.041,495.096z"/><path fill="#00AAF0" d="M129.892,495.672c0-14.501,0-57.438,0-71.892h-20.289c0,14.445,0,57.403,0,71.892 c0,5.151,4.175,9.327,9.327,9.327h20.289C134.067,505,129.892,500.823,129.892,495.672z"/></g><g><path fill="#E4EAF8" d="M401.899,426.78v-38.395c-0.006-4.57-3.724-8.198-8.292-8.194h-129.61 c-4.566,0.007-8.251,3.781-8.246,8.354v38.235H401.899z"/><path fill="#E4EAF8" d="M109.603,426.78v-38.395c0.006-4.57,3.724-8.198,8.292-8.194h129.61 c4.566,0.007,8.252,3.781,8.247,8.354v38.235H109.603z"/></g><g><path fill="#D8DCE5" d="M284.287,380.191h-20.289c-4.566,0.007-8.251,3.781-8.247,8.354v38.235h20.289v-38.235 C276.036,383.973,279.722,380.198,284.287,380.191z"/><path fill="#D8DCE5" d="M138.183,380.191h-20.289c-4.567-0.004-8.287,3.624-8.293,8.194v38.395h20.289v-38.395 C129.898,383.815,133.616,380.187,138.183,380.191z"/></g><path d="M472.808,88.045c-0.079-0.016-0.158-0.03-0.237-0.043c-18.937-3.104-33.938,8.371-39.14,29.94l-31.12,93.536	c-7.828-4.658-18.891-6.921-31.408,0.335c-11.285-8.012-24.853-12.377-38.774-12.377c-1.442,0-2.907,0.05-4.386,0.149	c-15.841-22.172-40.365-36.037-67.36-38.215V78.883h24.127c18.899,0,34.275-15.376,34.275-34.274V7.5c0-4.143-3.357-7.5-7.5-7.5	h-31.629c-18.898,0-34.274,15.376-34.274,34.274v16.079c-7.432-6.333-17.055-10.169-27.563-10.169h-41.419	c-4.142,0-7.5,3.357-7.5,7.5v31.594c0,23.469,19.094,42.564,42.564,42.564h33.92v39.528c-26.997,2.178-51.521,16.043-67.361,38.215	c-1.479-0.1-2.944-0.149-4.386-0.149c-12.947,0-25.325,3.638-36.091,10.55c-11.052-4.971-20.776-2.72-27.856,1.492l-31.121-93.536	c-5.204-21.57-20.203-33.049-39.139-29.94c-0.079,0.013-0.158,0.027-0.237,0.043c-24.656,4.854-28.206,28.47-26.416,41.657	c0.019,0.143,0.042,0.284,0.07,0.425l28.527,146.445c3.578,25.809,21.044,41.057,28.401,46.422c0.097,0.07,0.196,0.139,0.296,0.205	c52.071,34.273,52.648,32.795,63.008,48.992H118.15c-0.005,0-0.009,0-0.014,0c-8.694,0-15.774,7.033-15.785,15.694l0,0v107.288	c0,9.279,7.548,16.827,16.827,16.827h126.919c3.679,0,7.089-1.155,9.904-3.111c2.814,1.956,6.224,3.111,9.904,3.111h50.652	c4.143,0,7.5-3.357,7.5-7.5s-3.357-7.5-7.5-7.5h-50.652c-1.324,0-2.402-1.078-2.402-2.402V433.78H394.65v61.393	c0,1.007-0.819,1.826-1.826,1.826h-41.264c-4.143,0-7.5,3.357-7.5,7.5s3.357,7.5,7.5,7.5h41.264c9.279,0,16.827-7.548,16.827-16.827	V387.875l0,0c-0.011-8.652-7.09-15.685-15.779-15.685c-0.004,0-0.01,0-0.014,0h-14.933c10.432-16.309,11.494-15.086,63.008-48.992	c0.101-0.065,0.199-0.134,0.296-0.205c7.355-5.363,24.818-20.608,28.4-46.413l5.77-29.626c0.792-4.065-1.861-8.003-5.928-8.796	c-4.067-0.795-8.003,1.861-8.796,5.928l-5.813,29.843c-0.033,0.171-0.061,0.343-0.082,0.516	c-2.65,19.305-15.009,31.01-22.249,36.324c-55.226,36.351-55.039,33.761-70.273,58.148c-0.659,1.055-1.34,2.145-2.051,3.273h-93.178	c9.052-52.99,6.998-48.882,39.958-96.493c8.048-11.152,15.144-14.569,69.053-50.052c12.861-8.471,21.28,1.299,22.802,3.293	c0.015,0.021,0.034,0.038,0.05,0.059c0.032,0.042,0.059,0.087,0.093,0.128c1.664,2.165,6.479,9.772-1.426,16.73	c-13.91,12.242-46.902,41.511-47.234,41.805c-3.099,2.749-3.382,7.489-0.633,10.589c2.75,3.1,7.491,3.38,10.589,0.633	c0.331-0.294,33.302-29.543,47.19-41.766c12.39-10.906,10.62-24.895,5.681-33.704l33.611-101.022	c0.056-0.168,0.105-0.337,0.149-0.508l0.101-0.41c2.351-9.755,8.086-20.897,22.016-18.686c16.125,3.261,14.869,20.698,14.359,24.698	l-15.896,81.6c-0.792,4.065,1.861,8.003,5.928,8.796c4.068,0.795,8.003-1.861,8.796-5.928l15.939-81.825	c0.027-0.141,0.051-0.282,0.07-0.424C501.014,116.516,497.467,92.902,472.808,88.045z M260.381,34.274	c0-10.628,8.647-19.273,19.273-19.273h24.128v29.607c0,10.628-8.647,19.273-19.274,19.273h-24.127v-7.741V34.274z M245.379,106.841	H211.46c-15.198,0-27.563-12.364-27.563-27.563V55.186h33.919c15.198,0,27.562,12.364,27.562,27.563v24.092H245.379z M180.706,214.93c2.888,0.391,5.745-0.926,7.321-3.38c14.268-22.222,38.512-35.488,64.854-35.488	c26.341,0,50.585,13.267,64.853,35.488c1.576,2.455,4.441,3.771,7.321,3.38c2.403-0.326,4.783-0.492,7.072-0.492	c8.757,0,17.335,2.224,24.935,6.376c-41.366,27.092-50.971,32.763-59.545,43.832c-0.025,0.032-0.05,0.063-0.075,0.095	c-34.643,44.878-38.558,71.715-41.445,88.59c-2.716-15.881-4.825-26.408-8.975-36.475c-6.84-16.658-30.856-50.253-34.031-54.062	c-8.43-10.117-19.27-16.544-60.517-43.591c-0.087-0.057-0.178-0.117-0.266-0.174c6.669-3.024,13.923-4.592,21.422-4.592	C175.922,214.438,178.302,214.604,180.706,214.93z M148.74,368.915c-15.23-24.376-15-21.764-70.272-58.146	c-7.237-5.312-19.584-17.007-22.244-36.291c-0.022-0.185-0.051-0.367-0.086-0.549L27.611,127.486	c-0.51-4.002-1.763-21.438,14.358-24.698c13.937-2.21,19.665,8.932,22.016,18.686l0.101,0.411c0.043,0.171,0.093,0.34,0.149,0.507	l33.611,101.022c-4.939,8.808-6.709,22.798,5.681,33.703c13.888,12.223,46.859,41.471,47.191,41.766	c3.098,2.748,7.838,2.466,10.588-0.633c2.749-3.099,2.465-7.839-0.633-10.589c-0.332-0.294-33.324-29.563-47.234-41.805	c-7.896-6.949-3.101-14.546-1.432-16.722c0.022-0.028,0.04-0.058,0.062-0.087c0.016-0.021,0.034-0.038,0.05-0.059	c5.111-6.707,13.379-9.096,22.035-3.835c0.488,0.295,23.788,15.554,24.266,15.866c32.989,21.558,38.933,25.442,45.612,34.706	c0.006,0.008,0.012,0.016,0.017,0.023c33.735,48.735,31.144,45.034,39.92,96.442h-93.177	C150.08,371.06,149.399,369.97,148.74,368.915z M117.349,387.895c0-0.457,0.404-0.703,0.791-0.703l0,0c3.451,0,126.262,0,129.598,0	c0.101,0,0.199,0.025,0.289,0.069c0.011,0.005,0.018,0.016,0.029,0.022c0.254,0.141,0.441,0.432,0.441,0.762v0.01v30.725H117.349	C117.349,418.779,117.349,387.895,117.349,387.895z M248.497,494.596c0,1.324-1.078,2.402-2.402,2.402h-126.92	c-1.007,0-1.826-0.819-1.826-1.826v-61.393h131.147L248.497,494.596L248.497,494.596z M393.861,387.191	c0.381,0,0.784,0.246,0.785,0.693v30.895H263.498v-30.727v-0.018c0-0.045,0.018-0.086,0.025-0.13c0.061-0.39,0.37-0.713,0.733-0.714	C267.599,387.191,390.403,387.191,393.861,387.191z"/></svg>