<svg id="Capa_1" enable-background="new 0 0 512 512" height="512" viewBox="0 0 512 512" width="512" xmlns="http://www.w3.org/2000/svg"><g><path d="m431.362 448.084h-257.973v-146.277h257.973c40.393 0 73.138 32.745 73.138 73.138s-32.745 73.139-73.138 73.139z" fill="#94615f"/><path d="m441.362 420.171h-267.973v27.913h257.973c36.92 0 67.434-27.362 72.411-62.91-12.855 20.99-35.995 34.997-62.411 34.997z" fill="#7e5352"/><circle cx="173.389" cy="374.946" fill="#ffd0c2" r="73.138"/><path d="m356.884 341.233-151.862-99.698 38.778-59.067 151.862 99.698c16.311 10.708 20.853 32.611 10.145 48.922s-32.612 20.853-48.923 10.145z" fill="#d7e3f2"/><path d="m377.356 327.387-159.816-104.92-12.518 19.068 151.862 99.698c16.311 10.708 38.214 6.166 48.922-10.145 1.352-2.059 2.459-4.207 3.331-6.411-8.499 7.947-21.622 9.379-31.781 2.71z" fill="#b7cee9"/><path d="m199.222 206.529h70.658v24.259h-70.658z" fill="#b7cee9" transform="matrix(.549 -.836 .836 .549 -76.96 294.73)"/><path d="m252.117 169.8-54.293 82.7c-2.239 3.411-6.82 4.361-10.231 2.121l-156.875-102.99 43.385-66.086 28.464 4.419c5.909.917 11.939-.566 16.748-4.119l21.384-15.8c13.561-10.02 32.621-7.501 43.115 5.696l67.905 85.401c1.99 2.491 2.15 5.989.398 8.658z" fill="#f29b4e"/><path d="m199.526 236.445-156.876-102.989-11.932 18.175 156.876 102.99c3.411 2.239 7.992 1.29 10.231-2.121l11.341-17.274c-1.914 2.912-6.229 3.459-9.64 1.219z" fill="#ef7d31"/><circle cx="161.19" cy="146.942" fill="#5ecfb4" r="19.167"/><g><path d="m485.815 315.498c-3.055-2.797-7.799-2.589-10.597.466-2.797 3.055-2.589 7.799.466 10.597 13.546 12.405 21.316 30.054 21.316 48.42 0 36.19-29.447 65.633-65.642 65.633h-211.223c20.489-14.637 33.884-38.595 33.884-65.638s-13.395-51.001-33.884-65.638h74.449l58.179 38.195c7.229 4.746 15.376 7.014 23.439 7.014 13.957 0 27.655-6.799 35.871-19.313 5.228-7.964 7.446-17.044 6.94-25.895h12.345c5.757 0 11.468.746 16.975 2.216.648.173 1.299.256 1.94.256 3.314 0 6.346-2.213 7.241-5.568 1.068-4.002-1.31-8.113-5.312-9.181-6.769-1.807-13.782-2.724-20.844-2.724h-15.974c-3.219-7.272-8.481-13.735-15.609-18.414l-145.597-95.584 4.201-6.399c3.545-5.4 3.221-12.414-.797-17.442l-13.937-17.528 20.108-30.629c2.274-3.463 1.31-8.113-2.153-10.386-3.464-2.274-8.113-1.309-10.386 2.153l-17.397 26.5-16.074-20.215c-2.578-3.242-7.296-3.781-10.538-1.203s-3.78 7.297-1.202 10.539l19.147 24.081-11.309 17.226c-2.274 3.463-1.31 8.113 2.153 10.386 1.27.833 2.697 1.231 4.109 1.231 2.441 0 4.836-1.191 6.277-3.385l8.598-13.097 10.816 13.603-54.188 82.54-150.518-98.814 36.622-55.782 23.694 3.678c7.831 1.216 15.981-.788 22.356-5.498l21.384-15.8c10.364-7.658 24.768-5.757 32.79 4.332l5.684 7.149c2.578 3.243 7.296 3.78 10.538 1.203 3.242-2.578 3.78-7.296 1.202-10.538l-5.684-7.149c-13.074-16.442-36.549-19.543-53.445-7.061l-21.384 15.8c-3.177 2.347-7.234 3.347-11.141 2.74l-53.908-8.376c-16.181-2.516-32.451 4.704-41.441 18.398l-1.498 2.282c-12.672 19.303-7.279 45.316 12.024 57.989l164.585 108.051c2.513 1.65 5.346 2.438 8.148 2.438 4.852 0 9.614-2.363 12.469-6.713l3.082-4.694 64.569 42.39h-98.356c-44.465 0-80.641 36.174-80.641 80.638s36.176 80.638 80.641 80.638h257.979c44.466 0 80.642-36.172 80.642-80.633.001-22.565-9.543-44.245-26.184-59.485zm-466.418-212.388 1.498-2.282c5.007-7.627 13.531-12.125 22.486-12.125 1.363 0 2.737.104 4.11.318l13.935 2.167-32.878 50.08-1.434-.941c-12.388-8.133-15.85-24.828-7.717-37.217zm226.548 89.769 145.597 95.585c12.829 8.422 16.413 25.71 7.991 38.538-8.423 12.83-25.712 16.414-38.538 7.992l-145.597-95.585zm-138.207 182.097c0-36.193 29.446-65.638 65.641-65.638 36.194 0 65.64 29.445 65.64 65.638s-29.446 65.638-65.64 65.638c-36.195 0-65.641-29.445-65.641-65.638z"/><path d="m173.378 383.838c-1.058 0-2.089-.183-3.066-.543-3.882-1.434-8.198.556-9.632 4.442-1.433 3.886.556 8.198 4.443 9.632 2.644.975 5.421 1.469 8.255 1.469 13.158 0 23.862-10.704 23.862-23.862 0-13.157-10.704-23.862-23.862-23.862-4.308 0-8.533 1.163-12.218 3.363-3.557 2.123-4.72 6.727-2.597 10.284 2.123 3.556 6.728 4.72 10.285 2.596 1.362-.813 2.929-1.243 4.53-1.243 4.886 0 8.862 3.975 8.862 8.861-.001 4.888-3.976 8.863-8.862 8.863z"/><path d="m223.366 374.976c0-4.326-.555-8.624-1.649-12.774-1.056-4.005-5.158-6.395-9.164-5.34-4.005 1.056-6.397 5.159-5.34 9.164.766 2.903 1.153 5.914 1.153 8.95 0 19.292-15.695 34.987-34.987 34.987s-34.986-15.695-34.986-34.987 15.695-34.987 34.986-34.987c3.871 0 7.673.626 11.298 1.862 3.924 1.335 8.183-.759 9.519-4.68 1.337-3.921-.759-8.182-4.679-9.519-5.188-1.768-10.617-2.664-16.138-2.664-27.563 0-49.987 22.424-49.987 49.987s22.424 49.988 49.987 49.988 49.987-22.423 49.987-49.987z"/><path d="m161.179 120.298c-14.705 0-26.668 11.963-26.668 26.667s11.963 26.668 26.668 26.668 26.667-11.963 26.667-26.668-11.962-26.667-26.667-26.667zm0 38.335c-6.434 0-11.667-5.234-11.667-11.667s5.234-11.667 11.667-11.667 11.666 5.234 11.666 11.667c.001 6.433-5.233 11.667-11.666 11.667z"/><path d="m312.994 413.199h31.001c4.143 0 7.5-3.358 7.5-7.5s-3.358-7.5-7.5-7.5h-31.001c-4.143 0-7.5 3.358-7.5 7.5-.001 4.142 3.357 7.5 7.5 7.5z"/><path d="m422.997 367.476c-4.143 0-7.5 3.358-7.5 7.5s3.358 7.5 7.5 7.5h33.334c4.143 0 7.5-3.358 7.5-7.5s-3.358-7.5-7.5-7.5z"/><path d="m318.574 358.196c0-4.142-3.358-7.5-7.5-7.5h-31.414c-4.143 0-7.5 3.358-7.5 7.5s3.358 7.5 7.5 7.5h31.414c4.142.001 7.5-3.357 7.5-7.5z"/></g></g></svg>