<svg xmlns="http://www.w3.org/2000/svg" width="511pt" height="511pt" viewBox="1 0 511.999 511"><path fill="#e6e6e6" d="m360.039062 139.601562h40.359376v118.808594h-40.359376zm0 0"/><path fill="#c4becc" d="m360.039062 139.601562h20.179688v118.808594h-20.179688zm0 0"/><path fill="#e6e6e6" d="m274.476562 52.160156v237.71875l-239.863281-12.992187v-224.726563zm0 0"/><path fill="#c4becc" d="m274.476562 14.691406v68.597656h-239.863281v-59.484374zm0 0"/><path fill="#ff694f" d="m274.476562 227.046875h195.246094v168.472656h-195.246094zm0 0"/><path fill="#ed2867" d="m274.476562 304.277344h195.246094v91.242187h-195.246094zm0 0"/><path fill="#67c1b0" d="m200.355469 226.710938v-147.210938h-124.15625v158.957031"/><path fill="#ff694f" d="m200.355469 226.710938v-54.566407h-124.15625v66.3125"/><path fill="#4f5263" d="m293.132812 360.476562c0 78.847657-63.921874 142.769532-142.769531 142.769532-78.847656 0-142.769531-63.921875-142.769531-142.769532 0-78.847656 63.921875-142.769531 142.769531-142.769531 78.847657 0 142.769531 63.921875 142.769531 142.769531zm0 0"/><path fill="#e6e6e6" d="m236.558594 360.476562c0 47.605469-38.589844 86.199219-86.195313 86.199219s-86.199219-38.59375-86.199219-86.199219c0-47.605468 38.59375-86.195312 86.199219-86.195312s86.195313 38.589844 86.195313 86.195312zm0 0"/><path fill="#4f5263" d="m176.902344 360.476562c0 14.65625-11.882813 26.539063-26.539063 26.539063s-26.539062-11.882813-26.539062-26.539063 11.882812-26.539062 26.539062-26.539062 26.539063 11.882812 26.539063 26.539062zm0 0"/><path fill="#4f5263" d="m504.40625 412.707031c0 50.003907-40.535156 90.539063-90.539062 90.539063-50.003907 0-90.539063-40.535156-90.539063-90.539063 0-50.003906 40.535156-90.539062 90.539063-90.539062 50.003906 0 90.539062 40.535156 90.539062 90.539062zm0 0"/><path fill="#e6e6e6" d="m449.636719 412.707031c0 19.753907-16.015625 35.769531-35.769531 35.769531-19.757813 0-35.769532-16.015624-35.769532-35.769531 0-19.757812 16.011719-35.769531 35.769532-35.769531 19.753906 0 35.769531 16.011719 35.769531 35.769531zm0 0"/><path fill="#ff694f" d="m270.410156 8.09375h-235.796875v44.0625h279.863281c0-24.332031-19.730468-44.0625-44.066406-44.0625zm0 0"/><path fill="#67c1b0" d="m235.496094 79.496094h38.976562v129.101562h-38.976562zm0 0"/><path d="m150.363281 266.6875c-51.71875 0-93.792969 42.074219-93.792969 93.789062 0 51.71875 42.074219 93.792969 93.792969 93.792969 51.714844 0 93.789063-42.074219 93.789063-93.792969 0-51.714843-42.074219-93.789062-93.789063-93.789062zm0 172.390625c-43.34375 0-78.605469-35.257813-78.605469-78.601563 0-43.339843 35.261719-78.601562 78.605469-78.601562 43.339844 0 78.601563 35.261719 78.601563 78.601562 0 43.34375-35.261719 78.601563-78.601563 78.601563zm0 0"/><path d="m150.363281 326.34375c-18.824219 0-34.136719 15.3125-34.136719 34.132812 0 18.820313 15.3125 34.132813 34.136719 34.132813 18.820313 0 34.132813-15.3125 34.132813-34.132813 0-18.820312-15.3125-34.132812-34.132813-34.132812zm0 53.078125c-10.445312 0-18.945312-8.5-18.945312-18.945313 0-10.445312 8.5-18.945312 18.945312-18.945312 10.445313 0 18.945313 8.5 18.945313 18.945312 0 10.445313-8.5 18.945313-18.945313 18.945313zm0 0"/><path d="m477.320312 337.910156v-110.863281c0-4.195313-3.402343-7.59375-7.597656-7.59375h-61.726562v-79.851563c0-4.195312-3.402344-7.59375-7.597656-7.59375h-40.359376c-4.195312 0-7.59375 3.398438-7.59375 7.59375v79.851563h-70.375v-159.699219h32.40625c4.191407 0 7.59375-3.402344 7.59375-7.597656 0-28.484375-23.175781-51.65625-51.660156-51.65625h-235.796875c-4.195312 0-7.59375 3.398438-7.59375 7.59375v127.597656c0 4.195313 3.398438 7.597656 7.59375 7.597656 4.195313 0 7.59375-3.402343 7.59375-7.597656v-75.933594h224.675781v12.144532h-31.386718c-4.195313 0-7.59375 3.398437-7.59375 7.59375v129.101562c0 4.191406 3.398437 7.59375 7.59375 7.59375h31.386718v49.359375c-15.609374-19.121093-35.820312-34.34375-58.933593-43.964843v-142.085938c0-4.191406-3.398438-7.59375-7.59375-7.59375h-124.15625c-4.195313 0-7.59375 3.402344-7.59375 7.59375v154.84375c-9.609375 6.253906-18.46875 13.570312-26.398438 21.789062v-95.125c0-4.191406-3.398437-7.59375-7.59375-7.59375-4.195312 0-7.59375 3.402344-7.59375 7.59375v113.578126c-17.019531 24.367187-27.019531 53.980468-27.019531 85.890624 0 82.910157 67.453125 150.363282 150.363281 150.363282 68.101563 0 125.765625-45.515625 144.195313-107.722656h21.644531c-.308594 3.15625-.472656 6.351562-.472656 9.589843 0 16.382813 4.121093 32.601563 11.914062 46.902344 2.007813 3.679687 6.625 5.039063 10.304688 3.03125 3.683593-2.007813 5.042969-6.621094 3.03125-10.300781-6.578125-12.078125-10.058594-25.78125-10.058594-39.632813 0-45.734375 37.207031-82.945312 82.945313-82.945312 45.734374 0 82.941406 37.210937 82.941406 82.945312s-37.207032 82.945313-82.941406 82.945313c-22.832032 0-44.105469-9.085938-59.90625-25.574219-2.902344-3.03125-7.707032-3.132813-10.738282-.230469-3.027344 2.902344-3.128906 7.707032-.230468 10.738282 18.695312 19.507812 43.863281 30.253906 70.875 30.253906 54.109374 0 98.132812-44.023438 98.132812-98.132813 0-29.9375-13.480469-56.78125-34.679688-74.796875zm-210.441406-136.910156h-23.789062v-113.910156h23.789062zm100.753906-53.804688h25.171876v72.257813h-25.171876zm-325.425781-131.507812h228.203125c17.507813 0 32.171875 12.398438 35.675782 28.878906h-263.878907zm150.554688 71.410156v77.453125h-108.964844v-77.453125zm-108.964844 92.640625h108.964844v36.472657c-13.453125-3.960938-27.679688-6.097657-42.398438-6.097657-23.890625 0-46.488281 5.609375-66.566406 15.566407zm66.566406 315.914063c-74.535156 0-135.175781-60.640625-135.175781-135.175782 0-74.535156 60.640625-135.171874 135.175781-135.171874 74.535157 0 135.171875 60.636718 135.171875 135.171874 0 74.535157-60.636718 135.175782-135.171875 135.175782zm168.542969-107.726563h-20.699219c1.648438-8.902343 2.519531-18.078125 2.519531-27.449219 0-26.257812-6.773437-50.960937-18.65625-72.46875v-53.367187h23.292969v54.453125c0 4.195312 3.398438 7.59375 7.59375 7.59375 4.195313 0 7.59375-3.398438 7.59375-7.59375v-54.453125h18.730469v54.453125c0 4.195312 3.398438 7.59375 7.59375 7.59375s7.59375-3.398438 7.59375-7.59375v-54.453125h18.730469v54.453125c0 4.195312 3.402343 7.59375 7.597656 7.59375s7.59375-3.398438 7.59375-7.59375v-54.453125h18.730469v54.453125c0 4.195312 3.398437 7.59375 7.59375 7.59375 4.195312 0 7.59375-3.398438 7.59375-7.59375v-54.453125h39.820312v92.648437c-14.261718-8.089843-30.730468-12.714843-48.261718-12.714843-45.554688 0-83.957032 31.199219-94.960938 73.351562zm0 0"/><path d="m457.230469 412.707031c0-23.910156-19.453125-43.367187-43.363281-43.367187-23.910157 0-43.367188 19.457031-43.367188 43.367187 0 23.910157 19.457031 43.363281 43.367188 43.363281 23.910156 0 43.363281-19.453124 43.363281-43.363281zm-71.539063 0c0-15.535156 12.636719-28.175781 28.175782-28.175781 15.535156 0 28.175781 12.640625 28.175781 28.175781 0 15.535157-12.640625 28.175781-28.175781 28.175781-15.539063 0-28.175782-12.640624-28.175782-28.175781zm0 0"/></svg>