<svg height="511pt" viewBox="-25 0 511 511.99957" width="511pt" xmlns="http://www.w3.org/2000/svg"><path d="m140.394531 257.015625h-42.773437c-49.496094 0-89.621094-40.125-89.621094-89.621094v-34.09375h42.773438c49.496093 0 89.621093 40.125 89.621093 89.625zm0 0" fill="#ecf9fb"/><path d="m320.753906 257.015625h42.769532c49.5 0 89.625-40.125 89.625-89.621094v-34.09375h-42.773438c-49.496094 0-89.621094 40.125-89.621094 89.625zm0 0" fill="#ecf9fb"/><path d="m433.433594 133.304688v17.9375c0 49.496093-40.125 89.621093-89.621094 89.621093h-23.058594v16.152344h42.769532c49.5 0 89.625-40.125 89.625-89.621094v-34.089843zm0 0" fill="#d8f1fb"/><path d="m100.558594 148.394531-39.46875 65.996094c-6.039063 10.097656-6.425782 22.605469-1.023438 33.0625l.902344 1.746094c11.191406 5.023437 23.59375 7.816406 36.652344 7.816406h42.773437v-34.089844c0-31.074219-15.816406-58.453125-39.835937-74.53125zm0 0" fill="#d8f1fb"/><path d="m264.574219 504.5h-68c-9.929688 0-17.976563-8.050781-17.976563-17.980469v-49.386719h103.953125v49.386719c0 9.929688-8.050781 17.980469-17.976562 17.980469zm0 0" fill="#ffc7e7"/><path d="m255.714844 437.132812v49.386719c0 9.929688-8.050782 17.980469-17.980469 17.980469h26.839844c9.929687 0 17.976562-8.050781 17.976562-17.980469v-49.386719zm0 0" fill="#ff94d2"/><path d="m290.078125 105.191406h-119.007813c-11.960937 0-23.042968 6.28125-29.179687 16.546875l-59.175781 98.945313c-6.039063 10.097656-6.425782 22.605468-1.023438 33.058594l77.164063 149.296874c5.839843 11.292969 17.488281 18.386719 30.203125 18.386719h83.03125c12.714844 0 24.367187-7.09375 30.203125-18.386719l77.164062-149.296874c5.402344-10.453126 5.015625-22.960938-1.023437-33.058594l-59.175782-98.945313c-6.140624-10.265625-17.21875-16.546875-29.179687-16.546875zm0 0" fill="#ecf9fb"/><path d="m378.429688 220.683594-59.171876-98.945313c-6.140624-10.265625-17.21875-16.546875-29.179687-16.546875h-36.277344c11.960938 0 23.039063 6.28125 29.179688 16.546875l59.171875 98.945313c6.042968 10.097656 6.429687 22.605468 1.023437 33.058594l-77.160156 149.296874c-5.839844 11.292969-17.492187 18.386719-30.207031 18.386719h36.277344c12.714843 0 24.367187-7.09375 30.207031-18.386719l77.160156-149.296874c5.40625-10.453126 5.019531-22.960938-1.023437-33.058594zm0 0" fill="#d8f1fb"/><path d="m187.351562 239.648438c0 51.402343-23.269531 95.070312-55.636718 110.871093l-50.019532-96.78125c-5.410156-10.449219-5.023437-22.960937 1.019532-33.058593l53.507812-89.46875c30 17.5 51.128906 59.457031 51.128906 108.4375zm0 0" fill="#54696e"/><path d="m379.453125 253.738281-50.019531 96.78125c-32.371094-15.800781-55.640625-59.46875-55.640625-110.871093 0-48.980469 21.128906-90.9375 51.128906-108.4375l53.511719 89.46875c6.039062 10.097656 6.429687 22.609374 1.019531 33.058593zm0 0" fill="#54696e"/><path d="m378.429688 220.683594-53.507813-89.472656c-8.742187 5.097656-16.722656 12.289062-23.652344 21.109374l40.882813 68.363282c6.042968 10.097656 6.429687 22.605468 1.023437 33.0625l-39.421875 76.277344c7.550782 8.871093 16.222656 15.882812 25.679688 20.496093l50.019531-96.777343c.800781-1.550782 1.460937-3.148438 2.007813-4.773438 3.140624-9.339844 2.113281-19.683594-3.03125-28.285156zm0 0" fill="#4a5959"/><path d="m278.464844 465.058594c-14.625-.753906-28.246094-5.703125-40.777344-15.210938-4.238281-3.214844-10.074219-3.316406-14.460938-.304687-12.117187 8.324219-25.453124 12.527343-39.714843 13.585937-17.128907 1.269532-31.753907-12.214844-31.753907-29.390625v-22.242187c0-6.859375 5.5625-12.421875 12.425782-12.421875h132.78125c6.859375 0 12.421875 5.5625 12.421875 12.421875v24.121094c0 16.84375-14.101563 30.304687-30.921875 29.441406zm0 0" fill="#ffc7e7"/><path d="m296.964844 399.074219h-32.289063c6.859375 0 12.421875 5.5625 12.421875 12.421875v24.121094c0 11.539062-6.617187 21.488281-16.195312 26.332031 5.679687 1.761719 11.535156 2.796875 17.5625 3.105469 16.820312.867187 30.921875-12.59375 30.921875-29.4375v-24.121094c0-6.859375-5.5625-12.421875-12.421875-12.421875zm0 0" fill="#ff94d2"/><path d="m134.566406 133.984375 5.519532-9.230469c.007812-.015625.019531-.03125.027343-.042968l1.777344-2.972657c6.046875-10.109375 16.890625-16.34375 28.644531-16.53125l-.007812-.019531s-69.445313-27.390625-64.207032-97.6875c0 0-41.882812 91.679688 28.246094 126.484375zm0 0" fill="#333d3d"/><path d="m319.257812 121.738281 1.773438 2.96875c.011719.015625.019531.03125.03125.046875l5.519531 9.230469c70.128907-34.804687 28.242188-126.484375 28.242188-126.484375 5.238281 70.292969-64.203125 97.6875-64.203125 97.6875l-.007813.019531c11.753907.1875 22.597657 6.421875 28.644531 16.53125zm0 0" fill="#333d3d"/><path d="m453.148438 125.804688h-42.773438c-24.070312 0-47.257812 9-65.007812 24.972656l-8.359376-13.976563c26.796876-16.335937 39.726563-43.675781 37.480469-79.578125-1.769531-28.332031-12.386719-51.851562-12.839843-52.839844-1.507813-3.304687-5.167969-5.050781-8.6875-4.144531-3.519532.902344-5.882813 4.199219-5.613282 7.820313 1.984375 26.609375-7.242187 49.769531-27.421875 68.832031-13.046875 12.324219-26.773437 18.980469-30.847656 20.800781h-117c-4.09375-1.828125-17.8125-8.484375-30.851563-20.800781-20.179687-19.0625-29.40625-42.222656-27.421874-68.832031.269531-3.625-2.097657-6.917969-5.613282-7.820313-3.519531-.902343-7.179687.84375-8.6875 4.144531-.453125.988282-11.070312 24.507813-12.839844 52.839844-2.246093 35.902344 10.683594 63.242188 37.480469 79.578125l-8.359375 13.976563c-17.75-15.972656-40.9375-24.972656-65.007812-24.972656h-42.777344c-4.140625 0-7.5 3.355468-7.5 7.5v34.089843c0 4.074219.253906 8.183594.761719 12.210938.515625 4.109375 4.261719 7.027343 8.378906 6.507812 4.109375-.515625 7.019531-4.265625 6.503906-8.375-.425781-3.414062-.644531-6.890625-.644531-10.34375v-26.589843h35.273438c21.347656 0 41.875 8.371093 57.136718 23.136718l-31.632812 52.890625c-5.1875 8.675781-6.980469 18.652344-5.324219 28.253907-21.367187-7.296876-38.933594-23.160157-48.347656-44.226563-1.6875-3.78125-6.125-5.480469-9.90625-3.789063-3.78125 1.691407-5.476563 6.125-3.789063 9.90625 12.800782 28.648438 38.359375 49.164063 68.847656 55.492188l70.707032 136.800781c-2.632813 3.378907-4.207032 7.621094-4.207032 12.226563v22.246094c0 10.230468 4.300782 20.09375 11.800782 27.058593 4.304687 3.996094 9.476562 6.871094 15.039062 8.464844v17.257813c0 14.046874 11.429688 25.476562 25.476563 25.476562h68c14.046875 0 25.476562-11.429688 25.476562-25.476562v-15.308594c5.664063-1.601563 10.898438-4.570313 15.316407-8.769532 7.429687-7.054687 11.519531-16.585937 11.519531-26.828124v-24.121094c0-4.605469-1.570313-8.851563-4.203125-12.226563l70.703125-136.796875c20.933593-4.359375 39.992187-15.628906 53.996093-32.007812 15.003907-17.550782 23.265626-39.949219 23.265626-63.070313v-34.09375c0-4.140625-3.359376-7.496093-7.5-7.496093zm-291.679688 265.953124-19.75-38.207031c32.058594-19.828125 53.136719-64.410156 53.136719-113.902343 0-47.085938-18.8125-89.570313-48.484375-110.789063.34375-.570313 1.445312-2.414063 1.957031-3.269531 6.582031-11.007813 18.132813-12.515625 18.03125-12.472656 5.316406-.980469 11-.269532 123.71875-.429688 16.929687 0 23.535156 14.851562 24.699219 16.167969-29.671875 21.222656-48.484375 63.707031-48.484375 110.792969 0 13.65625 1.585937 27.113281 4.710937 39.996093.976563 4.023438 5.03125 6.496094 9.058594 5.519531 4.023438-.976562 6.496094-5.03125 5.519531-9.054687-2.84375-11.726563-4.285156-23.996094-4.285156-36.460937 0-22.585938 4.691406-44.292969 13.574219-62.777344 7.175781-14.9375 16.644531-26.929688 27.636718-35.089844l14.894532 24.90625c.003906.007812.011718.019531.015625.027344 36.28125 60.851562 36.007812 59.339844 37.410156 64.433594 1.734375 6.289062 1.097656 13.089843-2.035156 19.144531l-46.453125 89.875c-13.140625-8.464844-24.542969-22.460938-32.578125-40.148438-1.710938-3.773437-6.160157-5.441406-9.929688-3.730469-3.769531 1.714844-5.441406 6.160157-3.726562 9.933594 9.453125 20.816406 23.246093 37.347656 39.324219 47.320313l-19.75 38.210937c-1.421876-.1875-135.242188-.402344-138.210938.003906zm-73.113281-141.464843c-4.21875-8.148438-3.96875-17.792969.796875-25.761719l34.578125-57.8125c.003906-.007812.011719-.019531.015625-.027344l14.894531-24.90625c10.992187 8.160156 20.460937 20.148438 27.636719 35.089844 8.882812 18.484375 13.574218 40.191406 13.574218 62.777344 0 43.914062-17.835937 83.148437-45.035156 100.535156zm269.605469-205.429688c5.417968 32.15625-.632813 61.898438-28.65625 79.0625-2.429688-3.351562-6.3125-13.832031-18.761719-20.875 22-13.96875 39.507812-33.675781 47.417969-58.1875zm-254.773438 0c7.910156 24.515625 25.417969 44.21875 47.417969 58.1875-6.140625 3.472657-11.378907 8.527344-15.152344 14.839844-.179687.300781-3.84375 6.425781-3.613281 6.035156-28.023438-17.167969-34.070313-46.917969-28.652344-79.0625zm171.863281 441.660157c0 5.773437-4.699219 10.476562-10.476562 10.476562h-68c-5.777344 0-10.480469-4.699219-10.480469-10.476562v-16.085938c15.664062-1.484375 29.523438-6.566406 41.378906-14.710938 1.742188-1.199218 4.023438-1.160156 5.683594.097657 13.167969 9.988281 27.371094 15.222656 41.894531 16.511719zm26.835938-50.90625c0 12.566406-10.472657 22.578124-23.039063 21.949218-13.410156-.6875-25.390625-5.167968-36.625-13.691406-6.820312-5.175781-16.160156-5.378906-23.242187-.511719-11.050781 7.589844-27.035157 12.941407-39.980469 12.234375-4.734375-.480468-9.160156-2.472656-12.730469-5.789062-4.519531-4.195313-7.007812-9.902344-7.007812-16.066406v-22.246094c0-2.746094 2.269531-4.921875 4.921875-4.921875 135.058594 0 132.855468-.003907 133.128906.011719 2.554688.183593 4.574219 2.316406 4.574219 4.914062zm143.761719-268.222657c0 19.550781-6.984376 38.488281-19.667969 53.324219-9.601563 11.230469-22.007813 19.621094-35.785157 24.355469 1.652344-9.597657-.136718-19.570313-5.324218-28.242188l-31.632813-52.890625c15.261719-14.765625 35.789063-23.136718 57.136719-23.136718h35.273438zm0 0"/><path d="m188.207031 420.925781c-4.144531 0-7.5 3.359375-7.5 7.5v5.707031c0 4.144532 3.355469 7.5 7.5 7.5 4.140625 0 7.5-3.355468 7.5-7.5v-5.707031c0-4.140625-3.359375-7.5-7.5-7.5zm0 0"/><path d="m272.941406 420.925781c-4.140625 0-7.5 3.359375-7.5 7.5v5.707031c0 4.144532 3.359375 7.5 7.5 7.5s7.5-3.355468 7.5-7.5v-5.707031c0-4.140625-3.359375-7.5-7.5-7.5zm0 0"/><path d="m139.878906 253.855469c-6.816406 0-12.34375-5.527344-12.34375-12.34375v-11.023438c0-6.816406 5.527344-12.34375 12.34375-12.34375 6.820313 0 12.34375 5.527344 12.34375 12.34375v11.023438c0 6.816406-5.523437 12.34375-12.34375 12.34375zm0 0" fill="#333d3d"/><path d="m321.269531 253.855469c-6.820312 0-12.347656-5.527344-12.347656-12.34375v-11.023438c0-6.816406 5.527344-12.34375 12.347656-12.34375 6.816407 0 12.34375 5.527344 12.34375 12.34375v11.023438c0 6.816406-5.527343 12.34375-12.34375 12.34375zm0 0" fill="#333d3d"/><path d="m139.878906 261.355469c-10.941406 0-19.84375-8.902344-19.84375-19.84375v-11.023438c0-10.941406 8.902344-19.84375 19.84375-19.84375 10.945313 0 19.84375 8.902344 19.84375 19.84375v11.023438c0 10.941406-8.898437 19.84375-19.84375 19.84375zm0-35.714844c-2.671875 0-4.84375 2.175781-4.84375 4.847656v11.023438c0 2.671875 2.171875 4.84375 4.84375 4.84375s4.84375-2.171875 4.84375-4.84375v-11.023438c0-2.671875-2.171875-4.847656-4.84375-4.847656zm0 0"/><path d="m321.269531 261.355469c-10.945312 0-19.847656-8.902344-19.847656-19.84375v-11.023438c0-10.941406 8.902344-19.84375 19.847656-19.84375 10.941407 0 19.84375 8.902344 19.84375 19.84375v11.023438c0 10.941406-8.902343 19.84375-19.84375 19.84375zm0-35.714844c-2.671875 0-4.847656 2.175781-4.847656 4.847656v11.023438c0 2.671875 2.175781 4.84375 4.847656 4.84375s4.84375-2.171875 4.84375-4.84375v-11.023438c0-2.671875-2.171875-4.847656-4.84375-4.847656zm0 0"/></svg>