<svg xmlns="http://www.w3.org/2000/svg" xmlns:xlink="http://www.w3.org/1999/xlink" id="Layer_1" width="512" height="512" x="0" y="0" enable-background="new 0 0 511.969 511.969" version="1.1" viewBox="0 0 511.969 511.969" xml:space="preserve"><g><g><path fill="#8AC2FF" d="M139.405,81.248c0,12.9,0,284.146,0,299.558c0,4.674,3.789,8.463,8.463,8.463 c4.628,0,325.199,0,330.344,0c4.674,0,8.463-3.789,8.463-8.463c0-15.413,0-286.66,0-299.558H139.405z"/><path fill="#54A0FF" d="M158.724,380.806c0-15.412,0-286.658,0-299.558h-19.318c0,12.9,0,284.146,0,299.558 c0,4.674,3.789,8.463,8.463,8.463c0.658,0,7.706,0,19.318,0C162.513,389.269,158.724,385.48,158.724,380.806z"/><path fill="#576574" d="M137.983,124.757c-37.681,0-68.226,30.545-68.226,68.226v26.999 c4.56-4.227,11.047-6.524,17.379-5.678v-3.4c0-2.703,2.308-4.837,4.983-4.635c26.378,1.895,53.223-6.487,73.521-19.747 c1.895-1.238,4.404-0.93,5.944,0.725c17.353,18.653,17.248,17.931,17.248,20.366v6.676c6.941-1.04,13.098,1.105,17.376,5.082 v-26.388C206.209,155.302,175.665,124.757,137.983,124.757z"/><g><path fill="#3E4B5A" d="M88.07,192.983c0-34.574,25.721-63.121,59.07-67.597c-2.997-0.402-6.049-0.629-9.156-0.629 c-37.681,0-68.226,30.545-68.226,68.226v26.999c4.56-4.227,11.047-6.524,17.379-5.678v-3.4c0-1.05,0.351-2.011,0.933-2.785 V192.983z"/></g><path fill="#F2BB88" d="M187.929,211.578v37.374c0,0.405-0.021,0.805-0.031,1.209c13.226,2.003,23.584-7.554,23.584-19.29 C211.483,219.111,201.116,209.602,187.929,211.578z"/><path fill="#F2BB88" d="M88.04,248.952v-37.36c-11.514-1.538-23.554,7.299-23.554,19.278 c0,11.721,10.335,21.295,23.583,19.29C88.06,249.757,88.04,249.356,88.04,248.952z"/><path fill="#E3A76F" d="M204.475,215.932c-4.227-3.506-10.042-5.329-16.546-4.355v37.374c0,0.405-0.021,0.805-0.031,1.209 c6.524,0.988,12.347-0.84,16.577-4.352V215.932z"/><path fill="#E3A76F" d="M88.04,245.811c-4.347-3.609-7.008-8.997-7.008-14.94c0-5.783,2.81-10.829,7.008-14.333v-4.945 c-11.514-1.538-23.554,7.299-23.554,19.279c0,11.721,10.335,21.294,23.583,19.29c-0.01-0.403-0.029-0.805-0.029-1.208V245.811z"/><path fill="#F2BB88" d="M138.71,298.17c-11.022,0-20.709-3.026-28.631-8.088v26.776l28.509,35.19l28.508-35.19v-27.531 C159.02,294.898,149.242,298.17,138.71,298.17z"/><path fill="#E3A76F" d="M128.337,297.227c-6.797-1.261-12.928-3.739-18.258-7.145v26.776l18.258,22.536V297.227z"/><path fill="#E4EAF8" d="M242.514,344.258l-75.418-29.208l-28.508,35.19l-28.509-35.19L34.74,344.258 c0,0-27.894,11.468-27.894,43.267v70.959c0,3.584,2.905,6.489,6.489,6.489h250.642c3.553,0,6.433-2.88,6.433-6.433v-71.016 C270.409,355.726,242.514,344.258,242.514,344.258z"/><g><path fill="#D8DCE5" d="M25.103,458.484v-79.176c0-21.817,13.129-34.062,21.372-39.601l-11.736,4.55 c0,0-27.894,11.468-27.894,43.267v70.96c0,3.584,2.905,6.489,6.489,6.489h18.258C28.008,464.973,25.103,462.068,25.103,458.484z"/></g><path fill="#F2D1A5" d="M171.585,185.44c-1.54-1.655-4.049-1.963-5.944-0.725c-20.297,13.26-47.143,21.642-73.521,19.747 c-2.676-0.203-4.983,1.932-4.983,4.635v40.759c0,26.196,20.526,50.122,51.574,50.122c27.638,0,50.123-22.485,50.123-50.122v-44.05 C188.833,203.371,188.938,204.092,171.585,185.44z"/><g><path fill="#F2BB88" d="M105.394,249.856v-45.288c-4.416,0.235-8.852,0.212-13.274-0.105 c-2.675-0.203-4.983,1.932-4.983,4.635v40.759c0,26.196,20.526,50.122,51.574,50.122c2.864,0,5.669-0.255,8.403-0.718 C123.464,295.249,105.394,274.629,105.394,249.856z"/></g><path fill="#D8DCE5" d="M173.01,368.322l21.318-42.725l-27.232-10.546l-28.508,35.19l27.795,19.74 C168.632,371.578,171.777,370.791,173.01,368.322z"/><path fill="#D8DCE5" d="M104.205,368.322l-21.318-42.725l27.232-10.546l28.508,35.19l-27.795,19.74 C108.582,371.578,105.438,370.791,104.205,368.322z"/><path fill="#EE5253" d="M138.624,350.264v-0.024l-0.017,0.012l-0.017-0.012v0.024l-20.216,14.358l9.556,14.382 c7.707,0,13.646,0,21.355,0l9.556-14.382L138.624,350.264z"/><path fill="#D83941" d="M148.724,357.437l-10.099-7.173v-0.024l-0.017,0.012l-0.017-0.012v0.024l-20.216,14.358 l9.556,14.382c7.435,0,13.209,0,20.233,0l-7.846-11.809c-0.953-1.434-0.595-3.365,0.809-4.362L148.724,357.437z"/><g><path fill="#FF6B6B" d="M114.859,464.973h47.497l-13.071-85.969c-7.707,0-13.646,0-21.355,0L114.859,464.973z"/><path fill="#EE5253" d="M127.93,379.004l-13.071,85.969h20.233l13.071-85.969 C141.109,379.004,135.393,379.004,127.93,379.004z"/></g><path fill="#576574" d="M493.659,47.08H132.423c-5.585,0-10.155,4.57-10.155,10.155v16.857 c0,5.585,4.57,10.155,10.155,10.155h361.236c5.585,0,10.155-4.57,10.155-10.155V57.235C503.814,51.65,499.244,47.08,493.659,47.08 z"/><path fill="#3E4B5A" d="M493.659,64.55H132.423c-5.102,0-9.345-3.817-10.043-8.735c-0.066,0.465-0.112,0.937-0.112,1.42 v16.857c0,5.585,4.57,10.155,10.155,10.155h361.236c5.585,0,10.155-4.57,10.155-10.155V57.235c0-0.483-0.046-0.955-0.112-1.42 C503.004,60.733,498.761,64.55,493.659,64.55z"/><path fill="#EE5253" d="M436.37,163.784c0-1.943-1.575-3.518-3.518-3.518l-38.073,0c-3.134,0-4.704,3.79-2.488,6.006 l38.073,38.073c2.216,2.216,6.006,0.647,6.006-2.488V163.784z"/><path fill="#D83941" d="M412.291,166.271c-2.216-2.216-0.647-6.006,2.488-6.006h18.074h0h-38.073 c-3.134,0-4.704,3.79-2.488,6.006l38.073,38.073c2.216,2.216,6.006,0.647,6.006-2.488v-11.506L412.291,166.271z"/></g><g><path d="M296.946,215.369c-2.971-2.552-7.406-2.392-10.182,0.375l-68.126,67.866c-2.935,2.923-2.943,7.672-0.021,10.606 c2.926,2.937,7.675,2.942,10.606,0.021l63.209-62.967l42.84,36.819c3.055,2.625,7.641,2.369,10.385-0.584l66.331-71.432 l13.727,13.726c6.921,6.924,18.81,2.034,18.81-7.79v-38.074c0-6.075-4.943-11.018-11.019-11.018h-38.073 c-9.791,0-14.725,11.876-7.791,18.809l13.732,13.732l-61.798,66.551L296.946,215.369z M429.525,167.917v24.479l-24.479-24.479 H429.525z"/><path d="M494.313,39.731H335.36c-4.143,0-7.5,3.358-7.5,7.5s3.357,7.5,7.5,7.5h158.953c1.439,0,2.655,1.216,2.655,2.655v16.857 c0,1.439-1.216,2.655-2.655,2.655c-19.22,0-342.099,0-361.236,0c-1.439,0-2.655-1.216-2.655-2.655V57.386 c0-1.439,1.216-2.655,2.655-2.655H300.36c4.143,0,7.5-3.358,7.5-7.5s-3.357-7.5-7.5-7.5H133.077 c-9.735,0-17.655,7.92-17.655,17.655v16.857c0,9.561,7.644,17.352,17.139,17.629v25.801 c-38.921,3.109-69.648,35.753-69.648,75.461v22.189c-4.007,4.73-6.175,10.496-6.175,16.602c0,13.576,10.109,25.275,24.267,26.858 c2.269,14.25,9.989,27.939,22.229,37.184v14.097l-70.55,27.351c-0.047,0.018-0.094,0.037-0.141,0.056 C31.214,338.019,0,351.27,0,387.676v70.573c0,7.713,6.275,13.989,13.989,13.989c10.53,0,239.138,0,250.642,0 c7.683,0,13.933-6.25,13.933-13.933V396.92h200.304c8.803,0,15.964-7.161,15.964-15.963V241.184c0-4.142-3.357-7.5-7.5-7.5 s-7.5,3.358-7.5,7.5v139.773c0,0.531-0.433,0.963-0.964,0.963H278.295c-1.968-20.664-16.727-38.421-32.417-44.504l-70.627-27.352 v-15.012c11.12-8.876,18.838-21.76,21.067-36.251c10.723-1.215,20.204-8.651,23.252-19.689c2.286-8.279,0.512-17.451-5.205-24.354 v-21.623c0-38.762-29.17-70.794-66.804-75.186v-26.05h332.271v114.285c0,4.142,3.357,7.5,7.5,7.5s7.5-3.358,7.5-7.5V91.872 c9.495-0.277,17.138-8.068,17.138-17.629V57.386C511.969,47.651,504.049,39.731,494.313,39.731z M80.291,243.39 c-5.17-1.586-8.554-6.217-8.554-11.464c0-5.095,3.808-9.231,8.554-11.016V243.39z M108.356,324.181l20.042,24.739 c-8.651,6.144-17.462,12.404-18.394,13.066l-16.075-32.218L108.356,324.181z M139.261,338.453l-21.028-25.957v-8.435 c6.816,2.442,14.223,3.569,21.132,3.569c7.167,0,14.422-1.393,20.886-3.918v8.834L139.261,338.453z M149.224,366.679l-3.306,4.976 h-13.312l-3.307-4.976l9.962-7.075L149.224,366.679z M107.763,457.238H62.476v-58.632c0-4.142-3.357-7.5-7.5-7.5 s-7.5,3.358-7.5,7.5v58.632H15v-69.562c0-25.878,21.813-35.712,23.205-36.313l41.674-16.156l18.27,36.615v0 c3.275,6.561,11.661,8.7,17.682,4.424l1.234-0.876l3.63,5.464L107.763,457.238z M122.976,457.238l11.946-70.583h8.681 l11.946,70.583H122.976z M240.361,351.365c12.696,5.485,23.202,19.08,23.202,38.055v67.818H231.09v-58.632 c0-4.142-3.357-7.5-7.5-7.5s-7.5,3.358-7.5,7.5v58.632h-45.328l-12.932-76.405l3.63-5.463l1.235,0.877 c6.005,4.265,14.396,2.157,17.681-4.424v0l18.269-36.613L240.361,351.365z M184.595,329.768l-16.075,32.217 c0,0-18.388-13.061-18.419-13.083l20.038-24.733l3.215,1.245L184.595,329.768z M181.988,250.023 c-0.068,23.481-19.148,42.606-42.623,42.606c-0.022,0-0.043-0.002-0.065-0.002c-26.154-0.032-44.009-20.342-44.009-42.62 c0-4.662,0-33.171,0-37.736c23.666,1.039,50.24-5.52,73.08-19.829c7.345,7.881,11.869,12.611,13.617,14.65 C181.988,207.361,181.988,250.023,181.988,250.023z M205.265,234.489c-0.897,4.101-3.875,7.522-8.277,8.88v-22.893 C203.089,222.357,206.598,228.398,205.265,234.489z M199.364,193.134v12.436c-0.785-0.177-1.582-0.315-2.386-0.426 c-0.165-5.066-1.673-5.773-19.247-24.662c0,0-0.001-0.001-0.001-0.001c-4.039-4.34-10.573-5.138-15.535-1.894 c-20.103,13.133-45.152,20.251-68.854,18.547c-5.531-0.415-10.605,3.016-12.385,8.16c-1.023,0.155-2.04,0.364-3.044,0.628v-12.788 c0-33.484,27.241-60.726,60.726-60.726C171.822,132.408,199.364,159.765,199.364,193.134z"/></g></g></svg>