<svg id="Capa_1" enable-background="new 0 0 511.594 511.594" height="512" viewBox="0 0 511.594 511.594" width="512" xmlns="http://www.w3.org/2000/svg"><path d="m168.456 193.037s1.341-92.55 20.762-144.938c3.654-9.857 14.471-15.043 24.488-11.856 10.724 3.412 16.47 15.088 12.563 25.641-8.824 23.832-22.126 69.138-24.895 131.152h-32.918z" fill="#d77f4a"/><path d="m227.493 55.073c0 2.262-.388 4.563-1.225 6.815-8.827 23.831-22.127 69.132-24.897 131.15h-32.917s.05-3.666.289-9.963h16.03c2.77-62.018 16.07-107.319 24.887-131.15.837-2.252 1.235-4.563 1.235-6.824 0-3.467-.927-6.834-2.61-9.783 1.803.05 3.626.349 5.42.927 8.428 2.688 13.788 10.479 13.788 18.828z" fill="#c86d36"/><path d="m366.951 246.951c-1.893-11.687-4.976-23.173-9.496-34.008-15.784-37.838-50.492-59.558-89.029-61.596-21.518-1.138-41.91 5.313-62.574 10.355-11.477 2.8-23.387 2.8-34.864 0-20.664-5.042-41.057-11.494-62.574-10.355-38.538 2.039-73.245 23.759-89.029 61.596-4.52 10.835-7.602 22.321-9.496 34.008-3.67 22.654-2.933 62.806.456 85.443 3.458 23.096 9.417 45.971 18.385 67.317 18.197 43.31 51.166 74.408 96.994 76.462 15.444.692 29.427-1.527 43.607-5.451 12.512-3.463 25.665-3.463 38.177 0 14.18 3.925 28.163 6.143 43.607 5.451 45.828-2.054 78.797-33.152 96.994-76.462 8.969-21.346 14.928-44.221 18.385-67.317 3.39-22.638 4.127-62.789.457-85.443z" fill="#fd4755"/><path d="m366.494 332.396c-3.457 23.094-9.415 45.968-18.381 67.318-18.202 43.308-51.169 74.402-96.997 76.454-6.914.309-13.539.04-20.025-.707 41.485-5.25 71.543-35.129 88.609-75.747 8.976-21.35 14.934-44.225 18.391-67.318 3.387-22.635 4.125-62.795.458-85.441-1.903-11.696-4.981-23.173-9.504-34.013-14.546-34.88-45.181-56.06-80.071-60.763 6.406-.817 12.882-1.186 19.457-.837 38.536 2.042 73.236 23.761 89.027 61.6 4.513 10.839 7.602 22.317 9.495 34.013 3.665 22.646 2.928 62.806-.459 85.441z" fill="#fb2b3a"/><circle cx="335.311" cy="320.726" fill="#fdb441" r="155.572"/><path d="m490.883 320.731c0 85.917-69.651 155.567-155.577 155.567-26.585 0-51.603-6.664-73.489-18.416 14.608 4.535 30.137 6.981 46.229 6.981 85.927 0 155.577-69.661 155.577-155.577 0-59.342-33.228-110.925-82.098-137.162 63.355 19.686 109.358 78.772 109.358 148.607z" fill="#fea613"/><path d="m342.984 164.546c-2.529.967-4.232 3.333-4.345 6.038-.616 14.733 1.336 63.871 50.115 100.221 49.963 34.704 97.175 20.946 110.95 15.681 2.529-.967 4.232-3.333 4.345-6.038.616-14.733-1.336-63.871-50.115-100.221-49.963-34.703-97.175-20.945-110.95-15.681z" fill="#97d729"/><path d="m504.05 280.45c-.11 2.7-1.813 5.071-4.344 6.037-2.112.807-8.257 2.674-11.834 3.671-.398-19.258-3.369-62.75-46.917-95.198-42.302-29.39-82.641-24.02-102.367-18.491-.05-2.331-.02-4.304.05-5.888.11-2.7 1.813-5.071 4.344-6.037 13.778-5.26 60.992-19.019 110.955 15.681 48.778 36.354 50.73 85.49 50.113 100.225z" fill="#8bc727"/><path d="m458.399 174.237c-.067-.05-.134-.098-.202-.145-53.06-36.856-103.641-21.967-117.88-16.525-.15.057-.294.126-.441.188-1.517-.043-3.038-.072-4.566-.072-5.455 0-10.846.275-16.165.8-15.045-8.622-32.288-13.644-50.325-14.598-19.254-1.016-37.444 3.626-55.034 8.117-.459.117-.919.23-1.378.347 5.355-41.171 14.802-71.485 20.868-87.869 2.599-7.02 2.22-14.596-1.069-21.334-3.3-6.761-9.066-11.741-16.236-14.022-13.886-4.419-28.717 2.776-33.759 16.378-2.759 7.44-5.312 16.07-7.59 25.65-.955 4.015 1.526 8.043 5.541 8.998 4.012.952 8.043-1.526 8.998-5.541 2.138-8.992 4.515-17.037 7.063-23.912 2.264-6.106 8.944-9.33 15.216-7.332 3.24 1.031 5.845 3.281 7.337 6.336 1.479 3.032 1.652 6.437.485 9.59-6.563 17.726-16.936 51.131-22.333 96.475-6.35.82-12.815.716-19.137-.309 1.036-14.063 2.633-30.681 5.093-47.404.601-4.083-2.222-7.88-6.305-8.48-4.084-.607-7.88 2.222-8.48 6.305-2.381 16.181-3.972 32.265-5.034 46.129-.005-.001-.01-.002-.015-.004-17.59-4.491-35.775-9.132-55.034-8.117-20.694 1.095-40.344 7.539-56.826 18.637-17.168 11.56-30.552 28-38.705 47.544-4.549 10.906-7.906 22.914-9.975 35.689-3.888 23.998-2.888 65.504.442 87.744 3.728 24.902 10.082 48.152 18.886 69.105 9.935 23.646 23.481 42.677 40.26 56.564 18.337 15.176 39.63 23.408 63.289 24.469 14.849.664 29.444-1.151 45.934-5.715 11.184-3.095 23.008-3.094 34.191 0 14.296 3.957 27.167 5.848 40.014 5.848 1.972 0 3.944-.044 5.92-.133 12.265-.55 23.89-3.039 34.8-7.415 15.491 4.898 31.972 7.548 49.062 7.548 4.361 0 8.765-.174 13.088-.518 4.114-.327 7.183-3.928 6.856-8.041-.327-4.114-3.925-7.19-8.041-6.856-3.931.313-7.935.471-11.903.471-81.663 0-148.1-66.438-148.1-148.1 0-80.256 64.169-145.802 143.895-148.036-.271 17.784 3.839 67.335 53.183 104.107.067.05.134.098.202.145 27.053 18.791 53.455 24.131 74.73 24.13 8.435 0 16.047-.846 22.59-2.02 1.045 7.077 1.599 14.311 1.599 21.673 0 32.123-10.11 62.678-29.237 88.364-18.496 24.838-44.858 43.623-74.228 52.894-3.935 1.242-6.118 5.44-4.876 9.375s5.44 6.119 9.375 4.876c32.808-10.356 61.064-30.488 81.715-58.219 21.062-28.284 32.195-61.926 32.195-97.289 0-8.572-.674-16.989-1.956-25.208 2.39-.743 4.411-1.455 5.972-2.052 5.317-2.031 8.906-7.019 9.144-12.706.639-15.229-1.31-67.92-53.113-106.524zm-286.132 146.489c0 64.258 37.37 119.945 91.514 146.491-4.234.79-8.569 1.293-13 1.491-13.236.593-26.349-1.056-41.279-5.188-13.791-3.818-28.372-3.818-42.163 0-14.931 4.132-28.049 5.782-41.279 5.188-39.588-1.775-71.708-27.306-90.44-71.892-8.323-19.809-14.34-41.856-17.884-65.529-3.167-21.151-4.139-60.498-.47-83.142 1.883-11.623 4.916-22.498 9.016-32.326 14.062-33.709 44.914-55.022 82.528-57.011 1.577-.084 3.146-.124 4.712-.124 15.302 0 30.175 3.797 45.836 7.796 3.284.838 6.569 1.677 9.861 2.48 12.563 3.066 25.844 3.066 38.406 0 3.292-.803 6.577-1.642 9.861-2.48 17.264-4.407 33.571-8.575 50.548-7.673 8.742.462 17.114 1.979 24.998 4.445-69.473 18.672-120.765 82.191-120.765 157.474zm324.334-41.054c-13.063 4.901-57.004 17.288-103.482-14.931-45.312-33.833-47.528-79.431-47.032-93.379 13.066-4.901 57.007-17.285 103.481 14.932 45.316 33.834 47.529 79.435 47.033 93.378z"/><path d="m434.099 225.49-23.054-16.59 14.413-2.881c4.046-.809 6.671-4.745 5.862-8.792-.809-4.046-4.744-6.672-8.792-5.862l-28.058 5.608-18.038-12.98c-3.35-2.41-8.019-1.648-10.43 1.701-2.41 3.35-1.649 8.019 1.701 10.43l18.038 12.98 3.595 28.386c.478 3.775 3.695 6.534 7.403 6.534.313 0 .629-.02.948-.06 4.094-.519 6.992-4.258 6.474-8.352l-1.847-14.581 23.054 16.589 3.595 28.386c.478 3.775 3.695 6.534 7.403 6.534.313 0 .629-.02.948-.06 4.094-.519 6.992-4.258 6.474-8.352l-1.847-14.581 24.31 17.494c1.321.95 2.847 1.407 4.358 1.407 2.322 0 4.611-1.079 6.071-3.108 2.41-3.35 1.649-8.019-1.7-10.43l-24.31-17.494 14.413-2.881c4.046-.809 6.671-4.745 5.862-8.792-.809-4.046-4.744-6.672-8.792-5.862z"/></svg>