<svg height="512pt" viewBox="0 0 512 512" width="512pt" xmlns="http://www.w3.org/2000/svg"><path d="m429.746094 181.507812c0-96.097656-77.902344-174-174-174s-174 77.902344-174 174c0 75.042969 47.507812 138.992188 114.085937 163.410157v57.546875c0 19.898437 16.132813 36.027344 36.027344 36.027344h47.769531c19.898438 0 36.027344-16.128907 36.027344-36.027344v-57.546875c66.582031-24.417969 114.089844-88.367188 114.089844-163.410157zm0 0" fill="#ffe469"/><path d="m255.746094 7.507812c-6.765625 0-13.4375.398438-20 1.152344 86.675781 9.917969 154 83.515625 154 172.847656 0 75.042969-47.507813 138.992188-114.089844 163.410157v57.546875c0 19.898437-16.128906 36.027344-36.027344 36.027344h40c19.898438 0 36.027344-16.128907 36.027344-36.027344v-57.546875c66.582031-24.417969 114.089844-88.367188 114.089844-163.410157 0-96.097656-77.902344-174-174-174zm0 0" fill="#ffda30"/><path d="m165.253906 244.476562c18.230469 18.230469 45.636719 22.007813 57.550782 22.777344 3.234374.210938 5.902343-2.460937 5.695312-5.691406-.769531-11.917969-4.546875-39.324219-22.78125-57.554688-18.230469-18.230468-45.636719-22.011718-57.550781-22.777343-3.230469-.210938-5.902344 2.460937-5.695313 5.691406.769532 11.917969 4.550782 39.324219 22.78125 57.554687zm0 0" fill="#09a66d"/><path d="m228.5 261.558594c-.769531-11.914063-4.546875-39.320313-22.78125-57.550782-18.226562-18.230468-45.636719-22.011718-57.550781-22.78125-3.042969-.195312-5.585938 2.160157-5.699219 5.132813 10.363281 3.34375 21.390625 8.785156 30.25 17.648437 18.230469 18.226563 22.011719 45.636719 22.78125 57.550782.011719.191406.011719.378906.003906.5625 10.960938 3.539062 21.179688 4.738281 27.300782 5.132812 3.234374.210938 5.902343-2.460937 5.695312-5.695312zm0 0" fill="#028f5d"/><path d="m346.238281 244.476562c-18.214843 18.214844-45.589843 22.003907-57.523437 22.777344-3.25.210938-5.933594-2.476562-5.722656-5.726562.773437-11.933594 4.5625-39.308594 22.777343-57.519532 18.210938-18.214843 45.585938-22.003906 57.519531-22.777343 3.25-.210938 5.933594 2.476562 5.722657 5.726562-.773438 11.933594-4.5625 39.304688-22.773438 57.519531zm0 0" fill="#09a66d"/><path d="m363.289062 181.230469c-6.953124.449219-19.140624 1.929687-31.710937 6.683593-1.464844 13.453126-6.328125 36.546876-22.339844 52.5625-7.605469 7.601563-16.804687 12.6875-25.8125 16.09375-.203125 1.847657-.339843 3.515626-.433593 4.957032-.210938 3.25 2.472656 5.9375 5.722656 5.726562 11.9375-.773437 39.308594-4.5625 57.523437-22.777344 18.210938-18.214843 22-45.585937 22.773438-57.519531.210937-3.253906-2.472657-5.9375-5.722657-5.726562zm0 0" fill="#028f5d"/><path d="m284.363281 138.988281c0 25.933594-16.902343 48.09375-24.726562 56.960938-2.0625 2.335937-5.714844 2.335937-7.777344 0-7.824219-8.867188-24.726563-31.027344-24.726563-56.960938 0-25.929687 16.902344-48.089843 24.726563-56.957031 2.0625-2.339844 5.71875-2.339844 7.777344 0 7.824219 8.867188 24.726562 31.027344 24.726562 56.957031zm0 0" fill="#09a66d"/><path d="m259.636719 82.03125c-2.0625-2.339844-5.714844-2.339844-7.777344 0-3.253906 3.6875-8.082031 9.6875-12.609375 17.296875 6.351562 10.671875 12.117188 24.519531 12.117188 39.660156 0 15.144531-5.765626 28.992188-12.117188 39.664063 4.527344 7.609375 9.355469 13.605468 12.609375 17.296875 2.0625 2.335937 5.71875 2.335937 7.777344 0 7.824219-8.867188 24.726562-31.027344 24.726562-56.960938 0-25.929687-16.902343-48.089843-24.726562-56.957031zm0 0" fill="#028f5d"/><path d="m279.628906 504.492188h-47.769531c-19.898437 0-36.027344-16.128907-36.027344-36.027344v-58.570313c0-19.898437 16.128907-36.027343 36.027344-36.027343h47.769531c19.898438 0 36.027344 16.128906 36.027344 36.027343v58.570313c0 19.898437-16.128906 36.027344-36.027344 36.027344zm0 0" fill="#f0f0f0"/><path d="m279.628906 373.867188h-44c19.898438 0 36.027344 16.128906 36.027344 36.027343v58.570313c0 19.898437-16.128906 36.027344-36.027344 36.027344h44c19.898438 0 36.027344-16.128907 36.027344-36.027344v-58.570313c0-19.898437-16.128906-36.027343-36.027344-36.027343zm0 0" fill="#e8e8e8"/><g fill="#9e9e9e"><path d="m332.539062 400.777344-143.734374 8.519531c-9.625.570313-17.769532-7.035156-17.859376-16.675781-.082031-8.984375 6.894532-16.460938 15.863282-16.992188l143.734375-8.519531c9.625-.570313 17.769531 7.035156 17.859375 16.675781.082031 8.988282-6.894532 16.457032-15.863282 16.992188zm0 0"/><path d="m332.539062 468.605469-143.734374 8.519531c-9.625.570312-17.769532-7.03125-17.859376-16.675781-.082031-8.984375 6.894532-16.457031 15.863282-16.988281l143.734375-8.519532c9.625-.570312 17.769531 7.03125 17.859375 16.675782.082031 8.984374-6.894532 16.457031-15.863282 16.988281zm0 0"/><path d="m332.539062 468.605469-143.734374 8.519531c-9.625.570312-17.769532-7.03125-17.859376-16.675781-.082031-8.984375 6.894532-16.457031 15.863282-16.988281l143.734375-8.519532c9.625-.570312 17.769531 7.03125 17.859375 16.675782.082031 8.984374-6.894532 16.457031-15.863282 16.988281zm0 0"/></g><path d="m403.785156 286.542969c21.894532-30.800781 33.464844-67.121094 33.464844-105.035157 0-100.085937-81.421875-181.507812-181.503906-181.507812-24.609375 0-48.472656 4.839844-70.9375 14.386719-8.863282 3.765625-3.089844 17.613281 5.867187 13.804687 20.597657-8.753906 42.488281-13.191406 65.070313-13.191406 91.8125 0 166.503906 74.695312 166.503906 166.507812 0 34.78125-10.613281 68.097657-30.691406 96.347657-19.648438 27.644531-46.789063 48.398437-78.484375 60.023437-2.953125 1.085938-4.914063 3.894532-4.914063 7.042969v16.007813l-44.910156 2.660156v-67.667969l22.503906-21.011719c10.339844-.308594 43.71875-3.058594 65.789063-25.128906 25.828125-25.832031 25.199219-67.164062 25.160156-68.910156-.089844-4.011719-3.316406-7.238282-7.328125-7.332032-1.746094-.042968-43.078125-.667968-68.910156 25.164063-21.796875 21.796875-24.75 54.632813-25.121094 65.40625l-12.09375 11.289063v-72.269532c3.726562-3.988281 11.269531-12.746094 17.667969-24.550781 4.59375-8.464844-8.585938-15.628906-13.183594-7.148437-3.71875 6.855468-7.917969 12.558593-11.238281 16.613281-.246094-.023438-.496094-.039063-.746094-.039063s-.5.015625-.742188.039063c-7.761718-9.5-20.375-28.15625-20.375-49.058594 0-21.597656 13.46875-40.796875 21.125-49.96875 7.667969 9.144531 21.105469 28.277344 21.105469 49.96875 0 1.738281-.085937 3.515625-.261719 5.285156-.941406 9.582031 13.984376 11.066407 14.929688 1.46875.222656-2.253906.332031-4.527343.332031-6.753906 0-36.527344-29.667969-65.3125-30.933593-66.519531-2.898438-2.769532-7.464844-2.769532-10.363282 0-1.265625 1.207031-30.933594 29.988281-30.933594 66.519531 0 31.023437 21.390626 56.445313 28.617188 64.152344v72.230469l-12.109375-11.34375c-.378906-10.855469-3.375-43.578126-25.117187-65.324219-25.832032-25.832031-67.167969-25.207031-68.910157-25.160157-4.007812.089844-7.238281 3.320313-7.328125 7.328126-.039062 1.746093-.667968 43.078124 25.160156 68.910156 22.140626 22.140625 55.648438 24.839844 65.878907 25.132812l22.425781 21.011719v68.554687l-44.917969 2.664063v-22.222656c0-3.144531-1.964843-5.957031-4.917969-7.039063-31.695312-11.625-58.832031-32.382812-78.480468-60.027344-20.078125-28.25-30.691406-61.566406-30.691406-96.347656 0-26.726562 6.136718-52.246094 18.238281-75.855468 11.550781-22.527344 28.410156-42.464844 48.75-57.652344 7.796875-5.824219-1.269531-17.765625-8.976563-12.019532-22.164062 16.550782-40.53125 38.277344-53.121094 62.828126-13.199218 25.746093-19.890624 53.570312-19.890624 82.699218 0 37.914063 11.570312 74.234375 33.460937 105.035156 20.390625 28.6875 48.1875 50.570313 80.628906 63.535157v17.953125c-31.910156.691406-32.375 49.519531 0 48.785156v19.046875c-33.203125 1.085937-30.539062 51.003906 3.070313 48.628906 6.390625 16.097657 22.113281 27.511719 40.457031 27.511719h47.769531c21.179688 0 38.863282-15.203125 42.734375-35.269531l10.621094-.628907c31.199219-1.855468 28.675781-50.5-2.882813-48.640624l-6.945312.410156v-17.972656c0-.351563-.015625-.699219-.027344-1.046876l9.855469-.582031c31.160156-1.84375 28.746094-50.511719-2.882813-48.640625l-6.945312.410156v-9.960937c32.445312-12.96875 60.242188-34.847656 80.628906-63.535156zm-92.710937-77.234375c15.269531-15.273438 38.371093-19.324219 50.273437-20.394532-1.050781 11.886719-5.074218 34.921876-20.410156 50.257813-15.273438 15.273437-38.371094 19.324219-50.273438 20.394531 1.046876-11.886718 5.070313-34.921875 20.410157-50.257812zm-160.914063-20.390625c11.914063 1.070312 34.996094 5.128906 50.257813 20.390625 14.820312 14.820312 19.074219 37.011718 20.289062 49.191406-.25.203125-.492187.421875-.722656.664062-.09375.101563-.175781.210938-.265625.316407-12.160156-1.195313-34.285156-5.425781-49.167969-20.308594-15.261719-15.265625-19.316406-38.347656-20.390625-50.253906zm181.398438 185.667969c11.703125 0 12.234375 18.015624.535156 18.707031l-143.734375 8.519531c-2.582031.164062-5.050781-.734375-6.945313-2.5-1.890624-1.769531-2.949218-4.167969-2.972656-6.757812-.046875-4.992188 3.824219-9.136719 8.808594-9.433594l143.738281-8.519532c.191407-.011718.382813-.015624.570313-.015624zm6.375 70.351562c5.855468 5.46875 2.152344 15.714844-5.835938 16.1875l-35.796875 2.121094c-9.609375.570312-8.738281 15.535156.890625 14.976562l9.4375-.558594c-3.832031 11.230469-14.484375 19.335938-27 19.335938h-47.769531c-10.207031 0-19.171875-5.390625-24.214844-13.46875l55.542969-3.292969c9.613281-.570312 8.738281-15.515625-.886719-14.972656l-73.941406 4.382813c-12.054687.730468-13.140625-17.980469-1.109375-18.691407l143.738281-8.519531c2.582031-.15625 5.050781.734375 6.945313 2.5zm-134.601563-9.964844v-19.019531l104.820313-6.210937c0 .050781.003906.105468.003906.15625v18.863281zm0 0"/><path d="m103.777344 44.636719c6.691406 6.851562 17.4375-3.609375 10.734375-10.480469l-29.347657-30.050781c-6.726562-6.890625-17.46875 3.578125-10.730468 10.480469zm0 0"/><path d="m36.695312 66.769531 36.121094 21.433594c8.21875 4.871094 15.980469-7.960937 7.65625-12.898437l-36.125-21.4375c-8.28125-4.910157-15.949218 7.980468-7.652344 12.902343zm0 0"/><path d="m13.746094 126.941406 40.441406 11.355469c9.257812 2.597656 13.34375-11.835937 4.054688-14.441406l-40.441407-11.355469c-9.273437-2.601562-13.339843 11.835938-4.054687 14.441406zm0 0"/><path d="m49.246094 191.507812c9.574218 0 9.679687-14.886718.089844-15l-42.003907-.5c-9.601562-.304687-9.890625 14.882813-.175781 14.996094l42 .5c.03125.003906.0625.003906.089844.003906zm0 0"/><path d="m63.480469 235.082031c-1.023438-4.015625-5.105469-6.4375-9.121094-5.414062l-40.699219 10.390625c-9.332031 2.378906-5.621094 16.917968 3.710938 14.53125l40.699218-10.386719c4.011719-1.023437 6.433594-5.109375 5.410157-9.121094zm0 0"/><path d="m83.183594 282.585938c-2.027344-3.609376-6.601563-4.894532-10.210938-2.867188l-36.625 20.566406c-8.410156 4.726563-1.015625 17.777344 7.34375 13.078125l36.625-20.566406c3.613282-2.027344 4.894532-6.597656 2.867188-10.210937zm0 0"/><path d="m103.90625 323.246094-30.054688 29.347656c-6.796874 6.636719 3.539063 17.507812 10.480469 10.730469l30.050781-29.34375c6.894532-6.726563-3.578124-17.472657-10.476562-10.734375zm0 0"/><path d="m407.710938 323.375c-6.726563-6.894531-17.46875 3.578125-10.730469 10.476562l29.34375 30.054688c6.691406 6.855469 17.441406-3.609375 10.734375-10.476562zm0 0"/><path d="m474.796875 301.242188-36.125-21.433594c-8.28125-4.910156-15.949219 7.980468-7.652344 12.898437l36.121094 21.433594c8.21875 4.875 15.980469-7.957031 7.65625-12.898437zm0 0"/><path d="m497.742188 241.066406-40.441407-11.351562c-9.269531-2.605469-13.339843 11.835937-4.054687 14.441406l40.441406 11.351562c9.261719 2.601563 13.34375-11.832031 4.054688-14.441406zm0 0"/><path d="m504.332031 177.007812-42-.5c-9.601562-.304687-9.890625 14.882813-.179687 14.996094l42.003906.5c9.601562.304688 9.890625-14.882812.175781-14.996094zm0 0"/><path d="m448.007812 132.929688c.996094 3.90625 5.230469 6.40625 9.121094 5.414062l40.699219-10.390625c9.332031-2.378906 5.636719-16.925781-3.707031-14.53125l-40.703125 10.386719c-4.011719 1.023437-6.433594 5.105468-5.410157 9.121094zm0 0"/><path d="m428.304688 85.425781c1.976562 3.515625 6.71875 4.828125 10.214843 2.863281l36.621094-20.566406c8.398437-4.714844 1.066406-17.796875-7.34375-13.078125l-36.625 20.570313c-3.609375 2.027344-4.894531 6.597656-2.867187 10.210937zm0 0"/><path d="m402.34375 46.898438c1.890625 0 3.78125-.710938 5.242188-2.136719l30.050781-29.34375c6.890625-6.730469-3.578125-17.472657-10.476563-10.734375l-30.054687 29.347656c-4.683594 4.570312-1.40625 12.867188 5.238281 12.867188zm0 0"/></svg>