<?xml version="1.0" standalone="no"?>
<!DOCTYPE svg PUBLIC "-//W3C//DTD SVG 20010904//EN"
 "http://www.w3.org/TR/2001/REC-SVG-20010904/DTD/svg10.dtd">
<svg version="1.0" xmlns="http://www.w3.org/2000/svg"
 width="1875.000000pt" height="1875.000000pt" viewBox="0 0 1875.000000 1875.000000"
 preserveAspectRatio="xMidYMid meet">
<metadata>
Created by potrace 1.11, written by Peter Selinger 2001-2013
</metadata>
<g transform="translate(0.000000,1875.000000) scale(0.100000,-0.100000)"
fill="#000000" stroke="none">
<path d="M0 9380 l0 -8560 7683 1 c4318 1 7649 5 7607 10 -41 5 -133 20 -203
34 -220 45 -328 91 -390 167 -59 74 -44 208 31 280 80 77 128 78 319 7 210
-77 240 -84 388 -83 194 1 315 39 404 126 82 81 111 173 111 348 l0 96 -62
-61 c-167 -161 -360 -235 -588 -222 -350 20 -651 242 -784 580 -62 157 -70
205 -70 432 0 197 2 216 27 310 95 350 345 610 662 686 123 30 297 29 410 0
111 -29 249 -101 334 -172 l71 -59 0 42 c1 221 315 294 414 97 l26 -53 0 -905
c-1 -974 -1 -980 -53 -1129 -50 -143 -135 -253 -263 -342 -140 -97 -322 -161
-509 -179 -54 -5 557 -9 1548 -10 l1637 -1 -1 808 c-1 684 -3 795 -13 727 -34
-214 -115 -380 -261 -534 -426 -449 -1210 -388 -1548 122 -203 306 -230 728
-68 1062 154 318 435 511 797 545 234 23 469 -35 662 -164 82 -54 216 -190
267 -270 77 -122 133 -271 154 -412 5 -33 9 3257 10 7589 l1 7647 -4712 -1
c-2592 -1 -4699 -4 -4683 -8 45 -11 69 -26 105 -67 72 -83 95 -181 155 -654
52 -413 100 -650 164 -799 124 -290 428 -585 722 -700 485 -190 1006 -469
1539 -825 141 -94 438 -302 455 -319 7 -6 -12 -7 -55 -3 -565 54 -1406 112
-2100 147 -352 17 -1356 23 -1760 10 -748 -24 -1517 -72 -2293 -144 l-239 -23
26 23 c56 48 392 287 576 410 452 301 880 535 1270 696 74 30 169 69 210 86
150 62 422 295 539 461 59 84 112 184 147 277 41 109 79 329 149 863 43 322
69 422 133 492 39 43 62 58 107 69 17 4 -2048 7 -4587 8 l-4618 1 0 -8560z
m9875 5190 c762 -21 1621 -76 2540 -161 l329 -30 56 -41 c269 -202 814 -663
1180 -998 260 -237 631 -595 622 -598 -5 -1 -207 15 -448 37 -1360 125 -2419
197 -3689 252 -402 17 -1668 23 -2140 10 -1082 -30 -2081 -88 -3265 -192 -357
-31 -913 -84 -987 -94 -25 -4 -43 -2 -43 3 0 11 609 600 815 788 310 284 860
754 945 809 30 19 66 25 260 44 1520 145 2764 201 3825 171z m430 -1690 c1041
-38 1985 -97 3215 -200 508 -43 1194 -106 1247 -115 26 -5 84 -59 301 -283
601 -619 1226 -1315 1238 -1378 9 -47 -21 -104 -66 -126 -35 -17 -40 -17 -269
27 -1383 267 -3265 475 -4796 530 -88 3 -193 8 -233 11 l-72 6 21 -54 c35 -86
96 -278 115 -366 l19 -82 220 0 c395 0 1012 -29 1520 -71 675 -55 1276 -130
2110 -264 220 -35 431 -69 469 -75 38 -6 81 -17 97 -26 64 -32 59 105 57
-1878 l-3 -1804 -25 -27 c-40 -43 -58 -46 -253 -35 -829 46 -3525 165 -4207
185 -113 4 -220 11 -238 17 -20 6 -41 23 -53 42 -18 30 -19 70 -20 1501 0 809
-4 1686 -9 1950 -7 428 -10 489 -28 565 -43 183 -99 314 -198 462 -203 305
-528 519 -888 585 -136 25 -362 22 -494 -6 -554 -117 -978 -568 -1078 -1146
-14 -79 -17 -322 -21 -1985 -4 -1557 -8 -1900 -19 -1921 -24 -48 -61 -56 -289
-63 -747 -24 -3991 -168 -4312 -192 -97 -7 -141 9 -167 59 -16 30 -17 165 -14
1839 l3 1806 24 26 c29 31 33 32 466 101 1525 244 2586 344 3800 358 l179 2 9
40 c21 92 80 288 111 369 l34 86 -126 0 c-134 0 -511 -13 -902 -30 -1762 -79
-3197 -243 -4104 -471 -136 -34 -163 -38 -192 -29 -66 22 -99 115 -62 172 22
33 375 444 557 648 217 244 453 499 677 735 l190 200 160 17 c1401 152 3058
263 4434 298 397 10 1483 4 1865 -10z m3068 -8604 c18 -7 46 -29 63 -47 32
-35 186 -248 223 -309 32 -53 28 -95 -13 -136 -29 -29 -41 -34 -79 -34 -79 0
-99 13 -292 187 l-81 72 -139 -116 c-153 -127 -182 -143 -251 -143 -39 0 -51
5 -80 34 -57 57 -45 98 73 248 144 186 187 225 263 249 46 14 278 10 313 -5z
m4572 -5 c49 -23 58 -32 177 -201 117 -166 118 -168 118 -223 0 -60 -31 -89
-103 -95 -72 -6 -105 13 -250 142 -65 58 -123 106 -128 106 -6 0 -73 -52 -150
-115 -148 -123 -168 -135 -230 -135 -113 0 -156 95 -87 191 76 106 220 279
247 299 56 39 100 49 236 49 106 0 137 -3 170 -18z m-11176 -737 c174 -39 308
-153 375 -317 l23 -57 28 42 c73 111 222 240 338 292 102 47 166 60 292 59
197 -2 330 -49 429 -152 96 -101 162 -270 186 -476 13 -122 13 -1168 -1 -1218
-24 -86 -110 -147 -208 -147 -73 0 -106 12 -150 53 -72 69 -71 53 -71 624 0
637 -9 709 -96 812 -69 81 -190 114 -334 93 -145 -21 -255 -96 -311 -213 -47
-95 -49 -128 -49 -672 0 -326 -4 -526 -11 -550 -24 -86 -110 -147 -208 -147
-73 0 -106 12 -150 53 -72 69 -71 53 -71 617 0 289 -4 541 -10 588 -14 105
-40 177 -86 231 -46 53 -95 78 -183 93 -91 15 -212 -1 -289 -38 -104 -51 -185
-160 -211 -282 -7 -35 -11 -227 -11 -565 0 -326 -4 -526 -11 -550 -13 -47 -60
-102 -110 -128 -43 -21 -139 -26 -186 -8 -38 14 -90 65 -114 111 -18 36 -19
69 -19 855 0 919 -4 865 75 930 144 119 365 16 365 -169 l0 -50 70 71 c205
207 435 277 709 215z m3376 0 c164 -40 287 -138 359 -285 l42 -87 29 47 c40
63 157 178 235 231 136 92 296 130 472 110 267 -30 402 -141 486 -400 54 -163
57 -210 57 -845 l0 -590 -28 -48 c-40 -67 -94 -100 -172 -105 -104 -7 -173 29
-218 112 -22 41 -22 47 -27 621 -6 630 -5 619 -64 720 -47 80 -122 120 -245
131 -139 12 -281 -36 -361 -122 -23 -25 -56 -75 -73 -112 l-32 -67 -5 -560 -5
-561 -26 -49 c-36 -72 -92 -108 -173 -113 -105 -7 -174 28 -219 112 -22 41
-22 47 -27 621 -5 529 -7 584 -24 630 -55 151 -127 207 -285 221 -139 12 -281
-36 -361 -122 -23 -25 -56 -75 -73 -112 l-32 -67 -5 -560 -5 -561 -26 -49
c-36 -72 -92 -108 -173 -113 -105 -7 -174 28 -219 112 l-22 41 -3 799 c-3 908
-6 873 72 944 141 130 350 46 372 -150 l6 -53 72 72 c128 126 272 203 414 222
82 11 206 5 287 -15z m3144 16 c446 -46 782 -350 873 -790 27 -128 21 -385
-10 -502 -98 -364 -356 -619 -718 -710 -75 -19 -115 -22 -254 -22 -144 1 -177
4 -260 26 -391 105 -661 411 -720 817 -18 117 -8 332 20 441 29 118 125 307
200 398 155 185 400 315 645 341 115 12 113 12 224 1z"/>
<path d="M13100 3143 c-165 -27 -313 -137 -394 -293 -54 -103 -70 -176 -69
-320 0 -155 27 -250 104 -364 103 -155 256 -236 444 -236 252 0 453 158 531
415 14 45 19 93 19 195 0 125 -3 141 -31 220 -71 200 -218 336 -403 376 -63
13 -147 16 -201 7z"/>
<path d="M15310 3140 c-203 -36 -368 -196 -424 -414 -37 -141 -29 -314 19
-443 65 -173 217 -309 383 -344 80 -16 243 -7 313 18 165 59 297 213 345 403
23 87 23 263 0 350 -78 304 -340 481 -636 430z"/>
<path d="M17633 3136 c-260 -60 -433 -298 -433 -595 0 -122 20 -214 65 -306
95 -191 275 -305 482 -305 160 0 270 45 378 154 123 124 177 261 177 451 0
347 -213 594 -527 610 -49 3 -104 -1 -142 -9z"/>
</g>
</svg>
