<svg id="Capa_1" enable-background="new 0 0 512 512" height="512" viewBox="0 0 512 512" width="512" xmlns="http://www.w3.org/2000/svg"><path d="m133.328 346.576h49.48v130.232h-49.48z" fill="#efecef" transform="matrix(.707 -.707 .707 .707 -244.813 232.353)"/><path d="m129.518 348.155-20 20 60.958 60.958c6.147 6.147 6.147 16.113 0 22.26l-3.858 3.858 20 20 34.988-34.988z" fill="#d3ced5"/><path d="m495.026 268.265c-12.645-12.645-33.146-12.645-45.79 0l-49.366 49.365c-5.225 5.225-12.311 8.16-19.7 8.16h-100.882c-16.9 0-25.364-20.433-13.414-32.384l7.92-7.92c12.475-12.475 13.24-32.802 1.111-45.614-12.583-13.293-33.566-13.511-46.425-.652l-46.959 46.959c-7.279 7.279-11.9 16.204-13.876 25.576-1.547 7.34-5.342 14.016-10.647 19.32l-22.279 22.279 82.211 82.211 18.288-18.288c13.632-13.631 32.12-21.29 51.398-21.29h108.889c11.261 0 22.061-4.474 30.024-12.436l69.497-69.497c12.645-12.643 12.645-33.144 0-45.789z" fill="#ffcbbe"/><g fill="#eaac9d"><path d="m495.026 268.266c-8.773-8.773-21.329-11.459-32.418-8.058 4.098 11.426 1.57 24.695-7.582 33.848l-69.497 69.497c-7.963 7.963-18.763 12.436-30.024 12.436h-108.889c-19.278 0-37.766 7.658-51.398 21.29l-8.288 8.288c11.653 11.653 21.567 21.567 30 30l18.288-18.288c13.632-13.631 32.12-21.29 51.398-21.29h108.889c11.261 0 22.061-4.474 30.024-12.437l69.497-69.497c12.645-12.644 12.645-33.145 0-45.789z"/><path d="m399.871 317.631 49.366-49.365c.316-.316.641-.619.966-.919-12.702-11.712-32.495-11.409-44.823.919l-49.366 49.365c-5.225 5.225-12.311 8.16-19.7 8.16h43.857c7.388 0 14.475-2.935 19.7-8.16z"/><path d="m356.014 317.631 49.366-49.365c.316-.316.641-.619.966-.919-12.702-11.712-32.495-11.409-44.823.919l-49.366 49.365c-5.225 5.225-12.311 8.16-19.7 8.16h43.857c7.388 0 14.475-2.935 19.7-8.16z"/></g><circle cx="345.764" cy="102.557" fill="#fbf4c6" r="95.057"/><path d="m367.052 9.893c20.652 17.437 33.769 43.519 33.769 72.664 0 52.499-42.558 95.057-95.057 95.057-7.319 0-14.444-.827-21.288-2.393 16.548 13.972 37.934 22.393 61.288 22.393 52.498 0 95.057-42.558 95.057-95.057 0-45.18-31.52-82.998-73.769-92.664z" fill="#f6e781"/><circle cx="345.764" cy="102.557" fill="#f6e781" r="64.724"/><path d="m352.922 38.225c10.893 11.582 17.566 27.178 17.566 44.332 0 35.746-28.978 64.724-64.724 64.724-2.419 0-4.807-.133-7.157-.392 11.805 12.553 28.566 20.392 47.157 20.392 35.746 0 64.724-28.978 64.724-64.724 0-33.327-25.189-60.77-57.566-64.332z" fill="#f4dd45"/><path d="m166.275 504.5 24.807-24.806-103.16-103.16-80.413 80.412v47.554z" fill="#80b4fb"/><path d="m87.922 376.534-20 20 72.03 72.03c6.147 6.147 6.147 16.113 0 22.26l-13.677 13.676h40l24.806-24.806z" fill="#61a2f9"/><path d="m500.329 262.962c-7.532-7.532-17.546-11.681-28.198-11.681-7.915 0-15.479 2.291-21.933 6.559-13.33-8.827-30.611-8.772-43.859-.001-15.556-10.3-36.493-8.505-50.12 5.123l-49.365 49.365c-3.846 3.846-8.959 5.964-14.397 5.964h-13.168c-10.239 0-15.373-12.318-8.111-19.581l7.92-7.92c15.391-15.391 15.953-40.545 1.254-56.073-7.475-7.896-17.57-12.327-28.427-12.476-10.855-.147-21.069 3.998-28.748 11.676l-46.959 46.959c-8.063 8.064-13.565 18.208-15.911 29.333-1.215 5.764-4.192 11.146-8.611 15.564l-16.978 16.977c-2.936-2.827-7.608-2.794-10.503.101l-29.685 29.685-1.306-1.306c-2.929-2.929-7.678-2.929-10.606 0l-20 20c-2.929 2.929-2.929 7.678 0 10.606 2.929 2.929 7.678 2.929 10.606 0l14.696-14.696 92.554 92.554-17.305 17.306h-148.16v-36.947l33.011-33.011c2.929-2.929 2.929-7.678 0-10.606-2.929-2.929-7.678-2.929-10.606 0l-35.208 35.207c-1.407 1.406-2.197 3.314-2.197 5.303v47.554c0 4.142 3.358 7.5 7.5 7.5h158.766c1.989 0 3.897-.79 5.303-2.197l24.806-24.806c2.643-2.643 2.901-6.768.773-9.7l29.751-29.751c2.717-2.717 2.913-6.999.59-9.942l13.022-13.022c12.313-12.312 28.682-19.093 46.094-19.093h108.889c13.345 0 25.891-5.197 35.327-14.633l69.498-69.497c15.55-15.549 15.55-40.848.001-56.397zm-61.877 5.481-43.885 43.885c-3.846 3.846-8.958 5.963-14.397 5.963h-14.21c13.94-13.926 31.975-32.01 45.667-45.62 7.48-6.753 18.03-8.195 26.825-4.228zm-71.627 5.126c7.517-7.518 18.598-9.263 27.77-5.126l-43.885 43.884c-3.846 3.846-8.959 5.964-14.397 5.964h-14.21zm122.898 35.183-69.498 69.497c-6.604 6.603-15.383 10.24-24.721 10.24h-108.889c-21.418 0-41.555 8.341-56.701 23.486l-12.984 12.985-6.845-6.845c-2.928-2.93-7.677-2.929-10.606 0s-2.929 7.677 0 10.606l11.521 11.522-24.381 24.381-81.481-81.481 24.381-24.381 44.535 44.534c2.929 2.929 7.678 2.929 10.606 0 2.929-2.929 2.929-7.678 0-10.606l-39.334-39.333 16.976-16.976c6.48-6.48 10.865-14.459 12.682-23.077 1.744-8.272 5.838-15.818 11.84-21.82l46.959-46.959c4.79-4.79 11.14-7.376 17.936-7.284 6.772.093 13.072 2.859 17.739 7.789 9.167 9.684 8.733 25.455-.967 35.155l-7.92 7.92c-16.671 16.67-4.892 45.187 18.717 45.187h100.882c9.445 0 18.325-3.678 25.003-10.357 13.276-13.264 37.889-37.923 50.309-50.261 4.576-4.131 10.439-6.391 16.649-6.391 6.645 0 12.893 2.588 17.592 7.287 9.7 9.699 9.7 25.482 0 35.182z"/><path d="m345.764 205.114c56.55 0 102.557-46.007 102.557-102.557s-46.007-102.557-102.557-102.557-102.557 46.007-102.557 102.557 46.007 102.557 102.557 102.557zm0-190.114c48.279 0 87.557 39.278 87.557 87.557s-39.278 87.557-87.557 87.557-87.557-39.278-87.557-87.557 39.278-87.557 87.557-87.557z"/><path d="m345.764 174.781c39.824 0 72.224-32.399 72.224-72.224 0-21.026-9.139-40.968-25.073-54.711-3.137-2.706-7.873-2.357-10.578.781-2.706 3.137-2.356 7.873.781 10.578 12.628 10.892 19.87 26.693 19.87 43.353 0 31.553-25.67 57.224-57.224 57.224s-57.224-25.67-57.224-57.224 25.67-57.224 57.224-57.224c3.272 0 6.552.278 9.748.826 4.08.7 7.959-2.042 8.659-6.125s-2.042-7.959-6.125-8.659c-4.031-.691-8.163-1.042-12.282-1.042-39.825 0-72.224 32.399-72.224 72.224 0 39.823 32.4 72.223 72.224 72.223z"/><path d="m353.264 68.631v-4.684c0-4.142-3.358-7.5-7.5-7.5s-7.5 3.358-7.5 7.5v4.686c-9.358 2.101-16.371 10.476-16.371 20.458 0 11.561 9.405 20.966 20.966 20.966h5.809c3.29 0 5.966 2.676 5.966 5.966s-2.676 5.966-5.966 5.966h-5.809c-2.479 0-4.663-1.492-5.563-3.8-1.505-3.859-5.853-5.768-9.712-4.262-3.859 1.505-5.768 5.854-4.262 9.712 2.592 6.645 8.209 11.363 14.942 12.85v4.677c0 4.142 3.358 7.5 7.5 7.5s7.5-3.358 7.5-7.5v-4.686c9.357-2.101 16.37-10.476 16.37-20.458 0-11.561-9.405-20.966-20.966-20.966h-5.809c-3.29 0-5.966-2.676-5.966-5.966s2.676-5.966 5.966-5.966h5.809c2.404 0 4.563 1.431 5.5 3.646 1.614 3.814 6.012 5.598 9.83 3.986 3.815-1.614 5.599-6.015 3.986-9.83-2.679-6.33-8.202-10.838-14.72-12.295z"/><path d="m463.133 102.557c0 4.142 3.358 7.5 7.5 7.5h22.351c4.142 0 7.5-3.358 7.5-7.5s-3.358-7.5-7.5-7.5h-22.351c-4.142 0-7.5 3.358-7.5 7.5z"/><path d="m467.325 73.979 19.356-11.175c3.587-2.071 4.816-6.658 2.745-10.245-2.071-3.588-6.659-4.817-10.245-2.745l-19.356 11.175c-3.587 2.071-4.816 6.658-2.745 10.245 2.078 3.599 6.669 4.811 10.245 2.745z"/><path d="m459.825 144.125 19.356 11.175c3.571 2.062 8.165.858 10.245-2.745 2.071-3.587.842-8.174-2.745-10.245l-19.356-11.175c-3.587-2.072-8.174-.843-10.245 2.745-2.071 3.586-.842 8.174 2.745 10.245z"/><path d="m198.545 110.057h22.351c4.142 0 7.5-3.358 7.5-7.5s-3.358-7.5-7.5-7.5h-22.351c-4.142 0-7.5 3.358-7.5 7.5s3.358 7.5 7.5 7.5z"/><path d="m204.847 62.804 19.356 11.175c3.571 2.062 8.165.858 10.245-2.745 2.071-3.587.842-8.174-2.745-10.245l-19.356-11.175c-3.587-2.072-8.174-.843-10.245 2.745-2.072 3.587-.843 8.174 2.745 10.245z"/><path d="m224.203 131.134-19.356 11.175c-3.587 2.071-4.816 6.658-2.745 10.245 2.077 3.598 6.668 4.811 10.245 2.745l19.356-11.175c3.587-2.071 4.816-6.658 2.745-10.245s-6.659-4.816-10.245-2.745z"/></svg>