<svg id="Capa_1" enable-background="new 0 0 511.996 511.996" height="512" viewBox="0 0 511.996 511.996" width="512" xmlns="http://www.w3.org/2000/svg"><circle cx="158.39" cy="482.987" fill="#6c7ed6" r="21.59"/><path d="m158.39 482.987c0-7.987 4.348-14.944 10.795-18.678-3.178-1.841-6.858-2.912-10.795-2.912-11.924 0-21.59 9.666-21.59 21.59s9.666 21.59 21.59 21.59c3.937 0 7.617-1.071 10.795-2.912-6.447-3.735-10.795-10.692-10.795-18.678z" fill="#4f67d2"/><path d="m417.363 117.031h-322.005c-2.273 0-4.427-.535-6.346-1.482l30.613 317.028c1.611 16.582 15.549 29.231 32.209 29.231h188.179c0-23.621 17.148-40.769 40.769-40.769 4.69 0 9.198.766 13.42 2.16l29.507-307.65c-1.919.946-4.074 1.482-6.346 1.482z" fill="#00ba66"/><path d="m166.734 432.577-30.47-315.547h-40.906c-2.273 0-4.427-.535-6.346-1.482l30.613 317.028c1.611 16.582 15.549 29.231 32.209 29.231h47.11c-16.66.001-30.598-12.648-32.21-29.23z" fill="#00a855"/><path d="m259.023 227.225c-1.667-.853-3.658-.853-5.325 0-16.722 8.556-28.174 25.945-28.174 46.019s11.452 37.464 28.174 46.019c1.667.853 3.658.853 5.325 0 16.722-8.556 28.174-25.946 28.174-46.019s-11.452-37.463-28.174-46.019z" fill="#fee55a"/><circle cx="380.782" cy="461.808" fill="#6c7ed6" r="42.769"/><path d="m363.511 461.808c0-19.18 12.626-35.411 30.02-40.836-4.027-1.256-8.309-1.933-12.749-1.933-23.621 0-42.769 19.148-42.769 42.769s19.148 42.769 42.769 42.769c4.44 0 8.722-.677 12.749-1.933-17.394-5.425-30.02-21.656-30.02-40.836z" fill="#4f67d2"/><circle cx="380.782" cy="461.808" fill="#4f67d2" r="17.271"/><path d="m79.885 90.364 1.145 15.501c.631 7.444 6.858 13.165 14.329 13.165h322.005c7.471 0 13.698-5.721 14.329-13.165l1.145-15.501z" fill="#43cb8e"/><path d="m131.029 105.865-1.145-15.501h-50l1.145 15.501c.631 7.444 6.858 13.165 14.329 13.165h50c-7.471.001-13.697-5.72-14.329-13.165z" fill="#00ba66"/><path d="m369.027 7.581h-225.333c-31.552 0-57.129 27.578-57.129 59.129h339.593c-.001-31.551-25.579-59.129-57.131-59.129z" fill="#43cb8e"/><path d="m186.027 7.581h-42.333c-31.552 0-57.129 27.578-57.129 59.129h42.333c0-31.551 25.577-59.129 57.129-59.129z" fill="#00ba66"/><path d="m330.82 66.711v-21.042c0-4.484-3.635-8.118-8.119-8.118h-132.681c-4.484 0-8.119 3.635-8.119 8.118v21.041h148.919z" fill="#00ba66"/><path d="m232.353 37.551h-42.333c-4.484 0-8.119 3.635-8.119 8.119v21.041h42.333v-21.042c.001-4.483 3.636-8.118 8.119-8.118z" fill="#00a855"/><path d="m433.624 64.711h-354.526c-7.636 0-13.827 6.19-13.827 13.827 0 7.636 6.19 13.827 13.827 13.827h354.526c7.636 0 13.827-6.19 13.827-13.827-.001-7.637-6.191-13.827-13.827-13.827z" fill="#00ba66"/><path d="m115.271 78.538c0-7.636 6.19-13.827 13.827-13.827h-50c-7.636 0-13.827 6.19-13.827 13.827 0 7.636 6.19 13.827 13.827 13.827h50c-7.637-.001-13.827-6.191-13.827-13.827z" fill="#00a855"/><path d="m364.202 340.508-5.93-4.718c-1.126-.896-1.436-2.478-.726-3.729 29.725-52.446 13.963-119.311-35.453-153.119-6.047-4.137-14.371-1.876-17.411 4.791-.036.08-.074.159-.111.239-2.464 5.207-.657 11.415 4.095 14.673 38.007 26.056 50.795 76.439 30.442 117.34-.835 1.679-2.993 2.177-4.46 1.01l-6.173-4.911c-2.023-1.609-5.009-.181-5.027 2.404l-.249 36.979c-.014 2.009 1.86 3.5 3.814 3.035l35.977-8.553c2.514-.6 3.235-3.832 1.212-5.441z" fill="#fee55a"/><path d="m339.299 315.587 6.406 5.096c1.611 1.282 3.981.735 4.898-1.109 22.351-44.913 8.308-100.24-33.428-128.852-4.377-3.001-6.466-8.281-5.432-13.281-3.002.971-5.622 3.137-7.06 6.29-.036.08-.073.159-.111.239-2.464 5.207-.657 11.416 4.095 14.673 37.883 25.972 50.708 76.115 30.632 116.944z" fill="#ffd301"/><path d="m333.405 317.93c.004-.597.159-1.133.411-1.598l-5.342-4.25c-2.023-1.609-5.009-.181-5.027 2.404l-.249 36.979c-.014 2.009 1.859 3.5 3.814 3.035l6.157-1.464z" fill="#ffd301"/><path d="m310.788 362.198c-3.278-4.735-9.555-6.275-14.75-3.79-40.965 19.592-91.316 6.374-116.914-32.349-1.022-1.545-.337-3.642 1.386-4.32l7.33-2.887c2.405-.947 2.661-4.248.432-5.555l-31.9-18.705c-1.733-1.016-3.96-.139-4.536 1.786l-10.582 35.434c-.739 2.476 1.699 4.716 4.103 3.769l7.062-2.781c1.338-.527 2.863-.005 3.592 1.234 30.9 52.515 96.973 71.54 150.48 45.802 6.559-3.155 8.672-11.497 4.446-17.423-.05-.071-.1-.143-.149-.215z" fill="#fee55a"/><path d="m309.439 367.039c-53.507 25.738-119.581 6.713-150.48-45.802-.729-1.24-2.254-1.761-3.592-1.234l-7.062 2.781c-1.61.634-3.23-.164-3.906-1.501l-3.144 10.529c-.739 2.476 1.699 4.716 4.103 3.769l7.062-2.781c1.338-.527 2.863-.005 3.592 1.234 30.9 52.515 96.973 71.54 150.48 45.802 5.633-2.709 7.982-9.243 5.858-14.788-.84.784-1.811 1.462-2.911 1.991z" fill="#ffd301"/><path d="m153.152 278.488c.044-.004.089-.008.133-.011 5.715-.468 10.252-5.062 10.686-10.779 3.503-46.171 40.928-82.373 86.422-85.169 1.871-.115 3.381 1.504 3.103 3.358l-1.17 7.822c-.382 2.556 2.348 4.429 4.595 3.152l32.149-18.274c1.747-.993 2.101-3.36.721-4.821l-25.395-26.881c-1.775-1.878-4.934-.887-5.316 1.669l-1.12 7.486c-.212 1.421-1.425 2.483-2.862 2.494-60.311.462-110.412 47.524-114.9 107.429-.545 7.288 5.673 13.173 12.954 12.525z" fill="#fee55a"/><path d="m151.92 273.385c4.488-59.905 54.589-106.967 114.9-107.429 1.437-.011 2.649-1.073 2.862-2.494l1.12-7.486c.093-.619.351-1.144.71-1.561l-7.115-7.531c-1.775-1.878-4.934-.887-5.316 1.669l-1.12 7.486c-.212 1.421-1.425 2.483-2.862 2.494-60.311.462-110.412 47.524-114.9 107.429-.535 7.135 5.413 12.921 12.494 12.554-.622-1.569-.909-3.306-.773-5.131z" fill="#ffd301"/><g fill="#1d1d1b"><path d="m376.439 246.729c-7.059-30.318-24.984-56.62-50.474-74.059-4.732-3.238-10.608-4.215-16.125-2.68-15.536 4.323-19.537 25.323-5.779 34.757 33.128 22.711 45.586 65.997 30.321 102.659l-1.602-1.275c-6.914-5.501-17.135-.617-17.196 8.222l-.249 36.979c-.047 6.886 6.368 11.97 13.049 10.383l35.979-8.553c8.597-2.045 11.059-13.104 4.146-18.604 0-.001-.001-.001-.001-.001l-2.92-2.323c13.767-26.193 17.628-56.398 10.851-85.505zm-25.778 81.548c-2.313 4.077-1.633 9.064 1.541 12.357l-21.829 5.189.151-22.395c2.32 1.474 5.119 1.975 7.837 1.37 3.096-.688 5.682-2.712 7.099-5.556 22.063-44.337 7.912-98.878-32.916-126.867-4.801-3.291.215-10.568 4.952-7.326 46.201 31.61 60.769 94.524 33.165 143.228z"/><path d="m147.743 342.478 3.485-1.372c33.616 53.216 102.129 72.356 158.153 45.408 10.549-5.075 14.385-18.595 7.219-28.652-.004-.005-.007-.009-.01-.014-5.376-7.766-15.535-10.409-24.152-6.286-36.29 17.354-80.015 6.502-104.112-25.065l1.896-.746c8.223-3.236 9.104-14.53 1.48-19.004l-31.9-18.705c-5.934-3.478-13.55-.477-15.517 6.11l-10.581 35.434c-2.527 8.466 5.823 16.132 14.039 12.892zm9.311-38.661 19.32 11.329c-2.436 1.273-4.269 3.448-5.107 6.106-.949 3.006-.498 6.236 1.237 8.86 27.326 41.337 81.671 56.375 126.407 34.979 5.265-2.512 8.97 5.496 3.968 7.903-50.503 24.295-112.335 5.474-140.767-42.849-1.928-3.275-5.358-5.144-8.952-5.144-.838 0-1.687.102-2.525.312z"/><path d="m294.882 168.533-25.395-26.88c-6.066-6.422-16.881-3.033-18.186 5.708l-.552 3.683c-29.597 1.167-57.703 12.927-79.522 33.356-22.752 21.303-36.556 50.04-38.87 80.92-.909 12.159 9.66 21.784 21.179 20.55 9.452-.775 16.833-8.214 17.552-17.688 3.045-40.131 34.313-72.617 73.766-77.714l-.306 2.047c-1.309 8.74 8.033 15.15 15.718 10.783l32.151-18.275c5.981-3.402 7.181-11.499 2.465-16.49zm-34.224 17.288c.271-6.102-4.792-11.226-11.087-10.861-49.518 3.044-89.688 42.633-93.44 92.088-.155 2.042-1.798 3.707-3.821 3.873l-.184.015h-.001c-2.667.245-5.009-1.832-4.809-4.494 4.189-55.92 51.399-100.06 107.477-100.49 4.686-.035 8.66-3.117 9.924-7.505l15.408 16.31z"/><path d="m255.998 339.598c4.143 0 7.5-3.357 7.5-7.5v-6.996c41.635-22.72 40.988-82.936-1.421-104.634 0 0-.001 0-.001-.001-3.807-1.944-8.35-1.945-12.156.001-42.4 21.692-43.067 81.908-1.422 104.634v6.997c0 4.141 3.357 7.499 7.5 7.499zm0-105.383c27.863 14.923 31.274 53.042 7.5 72.845v-48.511c0-4.143-3.357-7.5-7.5-7.5s-7.5 3.357-7.5 7.5v48.51c-23.771-19.804-20.364-57.922 7.5-72.844z"/><path d="m433.262 57.13h-.416c-3.731-32.115-31.082-57.13-64.181-57.13h-225.333c-33.099 0-60.45 25.015-64.181 57.13h-.416c-11.76 0-21.327 9.567-21.327 21.327 0 9.609 6.392 17.748 15.145 20.405l.641 7.557c.539 6.357 3.689 11.839 8.348 15.454l30.256 311.349c1.427 14.685 10.565 26.782 23.2 32.481-3.671 4.844-5.854 10.876-5.854 17.409 0 15.927 12.958 28.885 28.885 28.885s28.884-12.958 28.884-28.885c0-5.03-1.295-9.762-3.565-13.885h147.365c3.632 24.174 24.538 42.77 49.708 42.77 27.719 0 50.27-22.551 50.27-50.27 0-20.057-11.812-37.402-28.843-45.461l12.866-132.397c.4-4.123-2.616-7.79-6.739-8.19-4.12-.401-7.789 2.616-8.19 6.739l-12.585 129.511c-2.219-.301-4.478-.47-6.778-.47-25.17 0-46.076 18.595-49.708 42.769h-179.24c-12.862 0-23.5-9.654-24.744-22.456l-29.67-305.321h317.882l-11.755 120.968c-.4 4.123 2.617 7.79 6.739 8.19 4.117.402 7.789-2.616 8.19-6.739l12.341-126.995c8.51-6.603 8.288-14.758 8.988-23.011 8.753-2.657 15.145-10.796 15.145-20.406-.002-11.762-9.569-21.328-21.328-21.328zm-261.35 425.981c0 7.656-6.229 13.885-13.884 13.885-7.656 0-13.885-6.229-13.885-13.885s6.229-13.885 13.885-13.885c7.656.001 13.884 6.229 13.884 13.885zm208.508-56.653c19.447 0 35.27 15.821 35.27 35.269s-15.822 35.27-35.27 35.27-35.27-15.822-35.27-35.27 15.823-35.269 35.27-35.269zm-237.088-411.458h225.333c24.817 0 45.438 18.31 49.064 42.13h-79.772v-11.542c0-8.612-7.006-15.618-15.618-15.618h-48.841c-4.143 0-7.5 3.357-7.5 7.5s3.357 7.5 7.5 7.5h48.841c.341 0 .618.277.618.618v11.542h-133.918v-11.542c0-.341.277-.618.619-.618h48.84c4.143 0 7.5-3.357 7.5-7.5s-3.357-7.5-7.5-7.5h-48.84c-8.612 0-15.619 7.006-15.619 15.618v11.542h-79.771c3.626-23.82 24.247-42.13 49.064-42.13zm-64.597 57.13h354.526c3.488 0 6.326 2.838 6.326 6.327 0 3.488-2.838 6.326-6.326 6.326-3.848 0-351.424 0-354.526 0-3.489 0-6.327-2.838-6.327-6.327 0-3.488 2.838-6.326 6.327-6.326zm16.261 39.319c-3.521 0-6.545-2.64-6.855-6.299l-.455-5.367h336.626c-.325 3.821.201 11.666-7.311 11.666z"/><path d="m380.42 486.498c13.659 0 24.771-11.112 24.771-24.771s-11.112-24.771-24.771-24.771-24.771 11.112-24.771 24.771 11.112 24.771 24.771 24.771zm0-34.543c5.388 0 9.771 4.384 9.771 9.771s-4.384 9.771-9.771 9.771-9.771-4.384-9.771-9.771 4.383-9.771 9.771-9.771z"/></g></svg>