<svg height="512pt" viewBox="0 -42 512.001 512" width="512pt" xmlns="http://www.w3.org/2000/svg"><path d="m230.207031 358.421875v-156.34375h-95.953125v156.34375c0 27.285156-16.214844 50.84375-39.507812 61.585937h174.972656c-23.296875-10.742187-39.511719-34.300781-39.511719-61.585937zm0 0" fill="#00b965"/><path d="m200.171875 364.144531c0 22.523438 10.402344 42.652344 26.648437 55.863281h42.898438c-23.296875-10.742187-39.511719-34.296874-39.511719-61.585937v-156.34375h-30.035156zm0 0" fill="#00a855"/><path d="m18.421875 420.007812h475.15625c6.03125 0 10.917969-4.886718 10.917969-10.917968v-94.671875c-11.40625.824219-22.65625 3.824219-33.128906 9.140625-13.402344 6.804687-28.5625 10.636718-44.625 10.636718-16.046876 0-31.195313-3.828124-44.589844-10.617187-25.324219-12.84375-55.378906-12.84375-80.703125 0-13.390625 6.789063-28.542969 10.617187-44.589844 10.617187-16.042969 0-31.195313-3.828124-44.589844-10.617187-25.324219-12.84375-55.375-12.84375-80.699219 0-13.394531 6.789063-28.546874 10.617187-44.589843 10.617187-15.476563 0-30.121094-3.558593-43.160157-9.90625-11.488281-5.59375-23.851562-8.835937-36.3125-9.617187v94.417969c-.003906 6.03125 4.886719 10.917968 10.914063 10.917968zm0 0" fill="#2dd2e3"/><path d="m471.367188 323.558594c-13.402344 6.804687-28.5625 10.640625-44.625 10.640625-1.234376 0-2.460938-.03125-3.683594-.078125v50.3125c0 6.03125-4.886719 10.917968-10.917969 10.917968h-404.636719v13.742188c0 6.027344 4.886719 10.914062 10.917969 10.914062h475.15625c6.03125 0 10.917969-4.886718 10.917969-10.914062v-94.675781c-11.402344.828125-22.65625 3.824219-33.128906 9.140625zm0 0" fill="#00bfd8"/><path d="m245.769531 213.265625h-126.335937v-52.222656c0-84.796875 68.742187-153.539063 153.539062-153.539063h223.246094c4.570312 0 8.277344 3.707032 8.277344 8.277344v109.78125c0 4.570312-3.707032 8.277344-8.277344 8.277344h-223.246094c-15.023437 0-27.203125 12.179687-27.203125 27.203125zm0 0" fill="#766e6e"/><path d="m496.21875 7.503906h-12.648438v76.035156c0 4.574219-3.707031 8.277344-8.277343 8.277344h-201.492188c-37.035156 0-67.058593 30.023438-67.058593 67.058594v40.191406h-87.308594v14.203125h126.332031v-52.222656c0-15.023437 12.179687-27.207031 27.207031-27.207031h223.246094c4.570312 0 8.273438-3.703125 8.273438-8.273438v-109.785156c.003906-4.570312-3.703126-8.277344-8.273438-8.277344zm0 0" fill="#5b5555"/><path d="m256.433594 229.777344h-147.03125c-3.078125 0-5.570313-2.492188-5.570313-5.570313v-33.046875c0-3.078125 2.492188-5.570312 5.570313-5.570312h147.03125c3.078125 0 5.570312 2.492187 5.570312 5.570312v33.046875c0 3.078125-2.492187 5.570313-5.570312 5.570313zm0 0" fill="#766e6e"/><path d="m256.429688 185.585938h-20.777344v26.945312c0 3.078125-2.496094 5.570312-5.574219 5.570312h-126.246094v6.101563c0 3.078125 2.496094 5.574219 5.574219 5.574219h147.023438c3.078124 0 5.574218-2.496094 5.574218-5.574219v-33.039063c0-3.082031-2.496094-5.578124-5.574218-5.578124zm0 0" fill="#5b5555"/><path d="m230.207031 358.421875v-27.871094c-6.25-1.75-12.253906-4.09375-17.9375-6.972656-24.433593-12.394531-53.269531-12.824219-78.015625-1.300781v36.140625c0 27.289062-16.214844 50.847656-39.507812 61.589843h174.96875c-23.292969-10.742187-39.507813-34.300781-39.507813-61.585937zm0 0" fill="#92dfb7"/><path d="m230.207031 358.421875v-27.871094c-6.25-1.75-12.253906-4.09375-17.9375-6.972656-3.929687-1.996094-7.976562-3.675781-12.101562-5.046875v45.613281c0 6.679688.917969 13.148438 2.628906 19.289063 1.667969 5.984375-2.789063 11.917968-9.003906 11.917968h-70.515625c-6.96875 10.671876-16.859375 19.273438-28.53125 24.65625h174.96875c-23.292969-10.742187-39.507813-34.300781-39.507813-61.585937zm0 0" fill="#6fd6a2"/><path d="m272.972656 141.34375h223.246094c8.703125 0 15.78125-7.078125 15.78125-15.78125v-109.78125c0-8.699219-7.078125-15.78125-15.78125-15.78125h-37.742188c-4.144531 0-7.503906 3.359375-7.503906 7.503906 0 4.148438 3.359375 7.507813 7.503906 7.507813h37.742188c.425781 0 .769531.34375.769531.769531v109.78125c0 .425781-.34375.773438-.769531.773438h-223.246094c-19.140625 0-34.710937 15.570312-34.710937 34.707031v17.039062h-29.957031c-4.144532 0-7.503907 3.359375-7.503907 7.503907 0 4.148437 3.359375 7.507812 7.503907 7.507812h46.195312v29.179688h-143.164062v-29.179688h62.945312c4.144531 0 7.503906-3.359375 7.503906-7.507812 0-4.144532-3.359375-7.503907-7.503906-7.503907h-47.34375v-17.039062c0-80.523438 65.511719-146.03125 146.035156-146.03125h152.148438c4.144531 0 7.503906-3.359375 7.503906-7.507813 0-4.144531-3.359375-7.503906-7.503906-7.503906h-152.148438c-88.800781 0-161.046875 72.246094-161.046875 161.046875v17.035156h-2.519531c-7.210938 0-13.078125 5.867188-13.078125 13.082031v33.039063c0 7.214844 5.867187 13.082031 13.078125 13.082031h17.34375v80.296875c-12.433594 6.039063-25.804688 9.109375-39.773438 9.109375-13.984374 0-27.398437-3.078125-39.871093-9.148437-12.367188-6.023438-25.53125-9.507813-39.132813-10.359375-2.074218-.128906-4.097656.601562-5.605468 2.019531-1.511719 1.417969-2.367188 3.398437-2.367188 5.46875v94.417969c0 10.160156 8.265625 18.421875 18.421875 18.421875h251.253906c.011719 0 .023438.003906.035157.003906.007812 0 .019531-.003906.027343-.003906h223.839844c10.160156 0 18.421875-8.261719 18.421875-18.421875v-94.671875c0-2.082031-.867188-4.074219-2.390625-5.496094-1.527344-1.417969-3.570313-2.136719-5.65625-1.988281-12.699219.917968-24.808594 4.261718-35.980469 9.933594-12.84375 6.519531-26.710937 9.824218-41.226562 9.824218-14.5 0-28.359375-3.300781-41.195313-9.808594-20.65625-10.472656-44.4375-13.179687-66.960937-7.625-4.027344.996094-6.484375 5.0625-5.488282 9.085938.992188 4.023438 5.054688 6.484375 9.082032 5.488281 19.035156-4.695312 39.128906-2.410156 56.578125 6.4375 14.957031 7.585938 31.101562 11.433594 47.984375 11.433594 16.898437 0 33.054687-3.855469 48.019531-11.453125 7.003906-3.554688 14.453125-6.019531 22.226563-7.363281v86.203125c0 1.882812-1.53125 3.410156-3.410157 3.410156h-222.148437c-20.535156-10.128906-33.71875-31.179688-33.71875-54.082031v-18.429688c6.253906 1.136719 12.644531 1.710938 19.144531 1.710938 12.089844 0 23.949219-2.015625 35.253906-5.992188 3.910157-1.375 5.964844-5.660156 4.589844-9.570312-1.375-3.90625-5.652344-5.964844-9.570313-4.589844-9.699218 3.414063-19.886718 5.144531-30.273437 5.144531-6.523437 0-12.917969-.675781-19.148437-2.003906v-87.40625h18.71875c7.210937 0 13.078124-5.867188 13.078124-13.078125v-33.042969c0-7.210937-5.867187-13.078125-13.078124-13.078125h-3.15625v-17.039062c0-10.859375 8.835937-19.699219 19.699218-19.699219zm-27.261718 271.160156h-227.289063c-1.882813 0-3.410156-1.53125-3.410156-3.414062v-86.0625c8.8125 1.355468 17.367187 4.039062 25.523437 8.007812 14.539063 7.078125 30.164063 10.667969 46.445313 10.667969 13.832031 0 27.171875-2.589844 39.769531-7.695313v24.410157c0 8.472656-1.730469 16.664062-5.144531 24.351562-1.679688 3.789063.027343 8.222657 3.816406 9.90625.988281.4375 2.023437.648438 3.042969.648438 2.875 0 5.621094-1.664063 6.863281-4.464844 4.269531-9.617187 6.433594-19.859375 6.433594-30.441406v-31.207031c21.621093-8.5625 46.203125-7.546876 67.117187 3.058593 4.503906 2.285157 9.117188 4.222657 13.824219 5.824219v22.324219c0 20.660156 8.585937 40.105469 23.007813 54.085937zm-23.007813-92.417968c-2.378906-.964844-4.726563-2.03125-7.039063-3.203126-22.984374-11.65625-49.714843-13.523437-73.902343-5.621093v-73.980469h80.941406zm0 0"/></svg>