<svg height="512pt" viewBox="0 -50 512 511" width="512pt" xmlns="http://www.w3.org/2000/svg"><g fill-rule="evenodd"><path d="m22.890625 322.664062h466.191406c8.476563 0 15.421875-6.917968 15.421875-15.394531v-39.542969c0-8.476562-6.945312-15.421874-15.421875-15.421874h-466.191406c-8.476563 0-15.394531 6.945312-15.394531 15.421874v39.542969c0 8.476563 6.917968 15.394531 15.394531 15.394531zm0 0" fill="#a66d30"/><path d="m22.890625 187.671875h466.191406c8.476563 0 15.421875-6.945313 15.421875-15.421875v-39.515625c0-8.476563-6.945312-15.421875-15.421875-15.421875h-466.191406c-8.476563 0-15.394531 6.945312-15.394531 15.421875v39.515625c0 8.476562 6.917968 15.421875 15.394531 15.421875zm0 0" fill="#a66d30"/><path d="m149.769531 55.628906c0-61.96875-88.273437-61.96875-88.273437 0v324.863282c0 13.210937 9.582031 24.011718 21.320312 24.011718h45.636719c11.707031 0 21.316406-10.800781 21.316406-24.011718zm0 0" fill="#f5df87"/><path d="m300.121094 54.492188c0-61.996094-88.269532-61.996094-88.269532 0v324.835937c0 13.210937 9.609376 24.011719 21.316407 24.011719h45.636719c11.734374 0 21.316406-10.800782 21.316406-24.011719zm0 0" fill="#f5df87"/><path d="m450.472656 55.628906c0-61.96875-88.242187-61.96875-88.242187 0v324.863282c0 13.210937 9.578125 24.011718 21.316406 24.011718h45.636719c11.707031 0 21.289062-10.800781 21.289062-24.011718zm0 0" fill="#f5df87"/><path d="m121.195312 11.832031c-25.765624-9.214843-59.695312 5.386719-59.695312 43.796875v324.863282c0 13.210937 9.578125 24.011718 21.316406 24.011718h31.152344c-11.734375 0-21.316406-10.800781-21.316406-24.011718v-324.863282c0-23.558594 12.753906-38.15625 28.542968-43.796875zm0 0" fill="#d9a13f"/><path d="m271.578125 10.667969c-25.796875-9.210938-59.726563 5.386719-59.726563 43.824219v324.835937c0 13.210937 9.609376 24.011719 21.316407 24.011719h31.152343c-11.707031 0-21.316406-10.800782-21.316406-24.011719v-324.835937c0-23.554688 12.753906-38.183594 28.574219-43.824219zm0 0" fill="#d9a13f"/><path d="m421.929688 11.832031c-25.769532-9.214843-59.699219 5.386719-59.699219 43.796875v324.863282c0 13.210937 9.582031 24.011718 21.316406 24.011718h31.152344c-11.734375 0-21.316407-10.800781-21.316407-24.011718v-324.863282c0-23.558594 12.757813-38.15625 28.546876-43.796875zm0 0" fill="#d9a13f"/><path d="m22.890625 117.3125c-8.476563 0-15.394531 6.945312-15.394531 15.421875v39.515625c0 8.476562 6.917968 15.421875 15.394531 15.421875h19.304687c-8.476562 0-15.421874-6.945313-15.421874-15.421875v-39.515625c0-8.476563 6.945312-15.421875 15.421874-15.421875zm0 0" fill="#6e3e0b"/><path d="m42.195312 252.304688h-19.304687c-8.476563 0-15.394531 6.945312-15.394531 15.421874v39.542969c0 8.476563 6.917968 15.394531 15.394531 15.394531h19.304687c-8.476562 0-15.421874-6.917968-15.421874-15.394531v-39.542969c0-8.476562 6.945312-15.421874 15.421874-15.421874zm0 0" fill="#6e3e0b"/></g><path d="m489.082031 195.167969c12.636719 0 22.917969-10.28125 22.917969-22.917969v-39.515625c0-12.636719-10.28125-22.917969-22.917969-22.917969h-31.109375v-19.546875c0-4.140625-3.359375-7.5-7.5-7.5s-7.496094 3.355469-7.496094 7.5v290.222657c0 8.949218-6.316406 16.511718-13.792968 16.511718h-45.636719c-7.621094 0-13.820313-7.40625-13.820313-16.511718v-324.863282c0-19.84375 10.457032-34.054687 27.972657-38.011718 14.058593-3.179688 32.992187 1.371093 41.316406 18.851562 2.628906 5.550781 3.960937 12 3.960937 19.160156 0 4.140625 3.355469 7.496094 7.496094 7.496094s7.5-3.355469 7.5-7.496094c0-9.394531-1.816406-17.996094-5.40625-25.59375-10.179687-21.363281-34.101562-32.488281-58.171875-27.046875-19.171875 4.335938-39.664062 20.4375-39.664062 52.640625v54.1875h-47.109375v-55.320312c0-35.449219-25.976563-53.996094-51.636719-53.996094-25.65625 0-51.632813 18.546875-51.632813 53.996094v55.320312h-47.082031v-18.355468c0-4.140626-3.355469-7.5-7.5-7.5-4.140625 0-7.496093 3.355468-7.496093 7.5v289.03125c0 8.953124-6.328126 16.515624-13.820313 16.515624h-45.636719c-7.621094 0-13.820312-7.410156-13.820312-16.515624v-324.863282c0-26.78125 18.992187-38.980468 36.636718-38.980468 17.648438 0 36.640626 12.199218 36.640626 38.980468 0 4.140625 3.355468 7.496094 7.496093 7.496094 4.144531 0 7.5-3.355469 7.5-7.496094 0-35.433594-25.976562-53.976562-51.632812-53.976562-25.660157 0-51.632813 18.539062-51.632813 53.976562v54.1875h-31.113281c-12.621094 0-22.890625 10.28125-22.890625 22.917969v39.515625c0 12.636719 10.269531 22.921875 22.890625 22.921875h31.109375v49.636719h-31.109375c-12.621094-.003906-22.890625 10.28125-22.890625 22.917968v39.542969c0 12.621094 10.269531 22.890625 22.890625 22.890625h31.109375v50.332032c0 17.375 12.925781 31.507812 28.816406 31.507812h45.636719c15.890625 0 28.816406-14.132812 28.816406-31.507812v-50.332032h47.082031v49.167969c0 17.375 12.925782 31.511719 28.8125 31.511719h45.640626c15.886718 0 28.8125-14.136719 28.8125-31.511719v-49.167969h47.113281v50.332032c0 17.375 12.925781 31.507812 28.816406 31.507812h45.636719c15.875 0 28.785156-14.132812 28.785156-31.507812v-50.332032h31.113281c12.636719 0 22.917969-10.269531 22.917969-22.890625v-39.542969c0-12.636718-10.28125-22.921874-22.917969-22.921874h-31.113281v-49.636719zm-466.191406-14.992188c-4.355469 0-7.894531-3.558593-7.894531-7.925781v-39.515625c0-4.371094 3.539062-7.925781 7.894531-7.925781h31.109375v55.367187zm0 134.988281c-4.355469 0-7.894531-3.539062-7.894531-7.894531v-39.542969c0-4.371093 3.539062-7.925781 7.894531-7.925781h31.109375v55.363281zm284.730469-119.996093h47.109375v49.636719h-47.109375zm47.109375-70.355469v55.363281h-47.109375v-55.363281zm-197.460938 70.355469h47.082031v49.636719h-47.082031zm47.082031-70.355469v55.363281h-47.082031v-55.363281zm-47.082031 190.351562v-55.363281h47.082031v55.363281zm135.355469 64.164063c0 9.109375-6.199219 16.515625-13.820312 16.515625h-45.636719c-7.492188 0-13.820313-7.5625-13.820313-16.515625v-324.832031c0-26.796875 18.992188-39 36.636719-39 17.648437 0 36.640625 12.203125 36.640625 39zm14.996094-64.164063v-55.363281h47.109375v55.363281zm181.460937-190.351562c4.367188 0 7.921875 3.550781 7.921875 7.921875v39.515625c0 4.371094-3.554687 7.925781-7.921875 7.925781h-31.109375v-55.363281zm0 134.988281c4.367188 0 7.921875 3.554688 7.921875 7.925781v39.542969c0 4.351563-3.554687 7.894531-7.921875 7.894531h-31.109375v-55.363281zm0 0"/></svg>