<?xml version="1.0" encoding="iso-8859-1"?>
<!-- Generator: Adobe Illustrator 19.0.0, SVG Export Plug-In . SVG Version: 6.00 Build 0)  -->
<svg version="1.1" id="Capa_1" xmlns="http://www.w3.org/2000/svg" xmlns:xlink="http://www.w3.org/1999/xlink" x="0px" y="0px"
	 viewBox="0 0 512.002 512.002" style="enable-background:new 0 0 512.002 512.002;" xml:space="preserve">
<path style="fill:#E0B377;" d="M247.587,300.268c-10.878-1.522-19.518-3.255-29.878-5.2c-3.13-0.588-5.311-3.47-5.039-6.644
	c1.316-15.348,5.007-32.01,10.647-45.662c-14.774,0-24.674,0-40.953,0l-25.242,162.472c-1.758,5.445-2.718,11.249-2.718,17.279
	c0,31.043,25.165,56.207,56.207,56.207c38.024,0,65.229-37.121,53.489-73.486L247.587,300.268z"/>
<path style="fill:#CC9A5E;" d="M174.403,422.513c0-6.03,0.96-11.834,2.718-17.279l25.242-162.472c-6.035,0-12.304,0-20.001,0
	L157.12,405.234c-1.758,5.445-2.718,11.249-2.718,17.279c0,31.043,25.165,56.207,56.207,56.207c3.452,0,6.813-0.31,10.066-0.893
	C194.374,473.133,174.403,450.163,174.403,422.513z"/>
<path style="fill:#E0B377;" d="M397.266,425.012l-18.449-117.284c-14.94,0-26.349,0-41.288,0L319.08,425.013
	c-8.572,26.555,11.275,53.709,39.093,53.709C385.964,478.721,405.847,451.59,397.266,425.012z"/>
<path style="fill:#CC9A5E;" d="M339.081,425.012l18.449-117.284c-6.374,0-12.775,0-20.001,0L319.08,425.013
	c-8.572,26.555,11.275,53.708,39.093,53.708c3.469,0,6.816-0.423,9.999-1.215C345.846,471.952,331.579,448.252,339.081,425.012z"/>
<path style="fill:#A06E4B;" d="M397.915,158.607C367.544,85.059,295.126,33.298,210.609,33.298
	c-105.974,0-192.936,81.378-201.82,185.05c-0.372,4.343,2.611,8.286,6.895,9.091c67.171,12.614,137.314,17.947,205.634,17.317
	C249.591,176.314,324.807,138.277,397.915,158.607z"/>
<g>
	<path style="fill:#93603E;" d="M30.389,222.709c8.582-102.515,90.035-183.721,191.1-189.116c-3.603-0.191-7.229-0.294-10.88-0.294
		c-105.974,0-192.936,81.378-201.82,185.05c-0.372,4.343,2.611,8.286,6.895,9.091c6.125,1.15,12.283,2.219,18.454,3.249
		C31.636,228.97,30.117,225.951,30.389,222.709z"/>
	<path style="fill:#93603E;" d="M459.126,192.249c-90.107-83.514-238.395-27.098-248.954,96.131
		c-0.296,3.454,2.045,6.54,5.445,7.178c90.619,17.017,195.253,16.976,285.824-0.134c2.979-0.563,5.039-3.281,4.794-6.323
		C503.239,252.026,486.509,217.629,459.126,192.249z"/>
</g>
<path style="fill:#7F573C;" d="M230.701,294.289c6.778-82.552,70.318-136.365,138.786-141.264
	c-75.794-5.303-151.863,48.377-159.316,135.356c-0.296,3.454,2.045,6.54,5.445,7.178c5.263,0.988,10.578,1.913,15.93,2.786
	C230.902,297.153,230.58,295.755,230.701,294.289z"/>
<path d="M13.044,234.426c50.651,9.512,104.114,15.178,159.374,16.921L148.543,403.12c-12.859,41.158,18.108,82.714,60.81,82.714
	c35.129,0,63.708-28.58,63.708-63.708c0-6.46-0.975-12.852-2.897-19.006l-14.86-94.466c23.485,2.966,47.631,4.878,72.27,5.722
	l-17.071,108.527c-1.438,4.65-2.166,9.475-2.166,14.351c0,26.788,21.793,48.581,48.581,48.581c32.519,0,56.098-31.582,46.416-62.931
	l-2.16-13.732c-0.645-4.091-4.468-6.89-8.576-6.243c-4.092,0.644-6.887,4.483-6.243,8.576c2.326,14.785,2.226,14.517,2.52,15.424
	c7.033,21.786-9.342,43.904-31.956,43.904c-22.613,0-38.986-22.119-31.956-43.903c0.12-0.372,0.211-0.753,0.272-1.139
	l17.452-110.949c0,0,28.463,0,28.464,0l9.699,61.66c0.645,4.091,4.479,6.892,8.574,6.243c4.092-0.644,6.888-4.482,6.244-8.574
	l-9.406-59.793c66.59-2.281,115.225-12.46,115.225-12.46c6.504-1.23,11.007-7.147,10.472-13.766
	c-5.242-64.867-50.087-118.063-109.83-136.173c-14.645-33.768-37.958-63.192-67.651-85.244
	C303.23,43.529,266.236,29.51,227.495,26.194c-4.111-0.347-7.759,2.706-8.112,6.833c-0.354,4.127,2.706,7.759,6.833,8.112
	c67.928,5.814,126.97,46.136,157.332,106.436c-70.949-12.259-139.596,25.351-168.456,89.299c-37.312,0-73.434-1.36-109.734-4.714
	c3.695-22.292,9.191-33.602,9.312-33.847c1.857-3.69,0.381-8.19-3.307-10.062c-3.69-1.874-8.206-0.398-10.082,3.295
	c-0.289,0.57-6.755,13.539-10.88,39.125c-9.957-1.072-19.946-2.319-29.986-3.718c2.238-15.873,14.218-78.284,67.774-120.819
	c3.244-2.576,3.785-7.294,1.209-10.539c-2.575-3.244-7.295-3.785-10.538-1.208c-34.902,27.719-53.113,62.909-62.244,87.548
	c-7.176,19.364-10.017,35.241-11.062,42.828c-9.842-1.529-19.742-3.206-29.742-5.084c-0.496-0.093-0.851-0.567-0.807-1.08
	c8.115-94.716,82.759-169.348,177.485-177.456c4.127-0.353,7.187-3.985,6.833-8.112c-0.354-4.127-3.979-7.181-8.112-6.833
	C142.101,30.402,95.794,51.974,60.82,86.942c-34.974,34.967-56.552,81.271-60.76,130.38C-0.645,225.55,4.936,232.903,13.044,234.426
	z M377.258,161.788c62.936,9.311,113.497,61.079,119.587,125.737c-7.346,1.366-14.787,2.606-22.29,3.743
	c-1.937-22.227-10.714-38.195-11.116-38.915c-2.019-3.617-6.588-4.911-10.206-2.892c-3.616,2.019-4.911,6.588-2.893,10.206
	c0.083,0.149,7.831,14.235,9.342,33.697c-80.224,10.442-167.19,8.201-242.691-5.838
	C224.313,209.685,296.567,149.999,377.258,161.788z M209.215,251.931c-5.472,16.549-7.354,33.351-7.325,36.779
	c0.054,6.506,4.666,12.121,11.18,13.343c8.387,1.575,18.507,3.259,26.714,4.474l15.65,99.487c0.061,0.386,0.151,0.767,0.271,1.139
	c1.563,4.84,2.355,9.879,2.355,14.975c0,26.857-21.85,48.707-48.707,48.707s-48.707-21.85-48.707-48.707
	c0-8.973,2.39-14.601,2.627-16.113l24.246-154.138C199.314,251.876,209.161,251.931,209.215,251.931z"/>
<g>
</g>
<g>
</g>
<g>
</g>
<g>
</g>
<g>
</g>
<g>
</g>
<g>
</g>
<g>
</g>
<g>
</g>
<g>
</g>
<g>
</g>
<g>
</g>
<g>
</g>
<g>
</g>
<g>
</g>
</svg>
