<svg id="Capa_1" enable-background="new 0 0 512 512" height="512" viewBox="0 0 512 512" width="512" xmlns="http://www.w3.org/2000/svg"><g><path d="m266.76 95.919h35.767v53.3h-35.767z" fill="#d7e3f2" transform="matrix(-1 0 0 -1 569.289 245.139)"/><path d="m259.676 69.964h-199.505c-5.241 0-10.258 2.127-13.903 5.893l-33.26 34.373c-3.533 3.651-5.508 8.533-5.508 13.614v37.327c0 15.584 13.973 27.905 30.075 25.117 1.253-.217 2.482-.563 3.685-.974l29.684-10.14c6.257 0 12.004 3.434 14.96 8.949.847 1.581 1.754 3.303 2.68 5.107 6.738 13.128 4.805 29.077-5.031 40.077-38.301 42.834-28.493 117.161-27 126.971.103.678-.147 1.358-.664 1.808l-16.177 14.081c-1.818 1.583-2.862 3.875-2.862 6.286v55.249c0 4.602 3.731 8.334 8.334 8.334h163.576c4.602 0 8.334-3.731 8.334-8.334v-44.232c0-17.735-14.377-32.111-32.111-32.111h-38.574c-11.146 0-19.203-10.655-16.167-21.38l32.043-113.184h21.343c3.287 0 5.953-2.665 5.953-5.953v-41.667h70.096c3.913 0 7.085-3.172 7.085-7.085v-91.041c-.002-3.913-3.173-7.085-7.086-7.085z" fill="#f29b4e"/><path d="m184.982 357.358h-22.289c17.735 0 32.111 14.377 32.111 32.111v44.233c0 4.602-3.731 8.334-8.333 8.334h22.289c4.603 0 8.334-3.731 8.334-8.334v-44.232c0-17.735-14.377-32.112-32.112-32.112z" fill="#ef7d31"/><path d="m259.676 69.964h-22.289c3.913 0 7.085 3.172 7.085 7.085v91.042c0 3.913-3.172 7.085-7.085 7.085h22.289c3.913 0 7.085-3.172 7.085-7.085v-91.042c-.001-3.913-3.172-7.085-7.085-7.085z" fill="#ef7d31"/><path d="m85.904 184.124c.847 1.581 1.754 3.303 2.68 5.107 6.738 13.128 4.805 29.077-5.031 40.077-38.301 42.834-28.493 117.161-27 126.971.057.374-.003.745-.147 1.081 0 0 32.005 3.807 29.803-5.59-.648-2.768-10.12-69.11 19.71-102.47 7.927-8.864 13.084-19.601 15.305-30.9 3.5-17.806-10.517-34.276-28.664-34.276z" fill="#7d8c97"/><path d="m36.85 396.74v36.963c0 4.602 3.731 8.334 8.334 8.334h163.576c4.603 0 8.334-3.731 8.334-8.334v-36.963z" fill="#7d8c97"/><path d="m194.805 433.703c0 4.602-3.731 8.334-8.333 8.334h22.289c4.603 0 8.334-3.731 8.334-8.334v-36.963h-22.289v36.963z" fill="#5c6c75"/><path d="m356.316 78.818v87.502l50.623-16.518c2.449-.799 4.106-3.083 4.106-5.659v-43.149c0-2.576-1.657-4.86-4.106-5.659z" fill="#7d8c97"/><path d="m406.939 127.153-50.623 16.518v22.65l50.623-16.518c2.449-.799 4.106-3.083 4.106-5.659v-22.65c0 2.576-1.657 4.86-4.106 5.659z" fill="#5c6c75"/><path d="m305.528 78.818h50.788v87.502h-50.788c-1.657 0-3-1.343-3-3v-81.502c0-1.657 1.343-3 3-3z" fill="#5c6c75"/><path d="m302.528 140.67v22.65c0 1.657 1.343 3 3 3h50.788v-22.65h-50.788c-1.657 0-3-1.343-3-3z" fill="#4a5960"/><path d="m189.58 216.842v-41.667h-30.725c-7.147 0-12.074 7.165-9.516 13.838l12.945 33.782h21.343c3.288-.001 5.953-2.666 5.953-5.953z" fill="#7d8c97"/><circle cx="119" cy="396.74" fill="#4a5960" r="18.13"/><circle cx="88.051" cy="122.569" fill="#ef7d31" r="18.101"/><g><path d="m504.5 115.069h-85.955v-14.074c0-5.838-3.729-10.978-9.279-12.789 0 0-51.001-16.626-51.182-16.669-.61-.15-1.312-.217-1.754-.218h-50.802c-5.79 0-10.5 4.71-10.5 10.5v6.601h-20.768v-11.372c0-8.042-6.543-14.584-14.585-14.584h-120.412c-4.142 0-7.5 3.358-7.5 7.5s3.358 7.5 7.5 7.5h119.998v90.211h-100.406c-5.826 0-11.275 2.866-14.577 7.667-3.301 4.8-4.028 10.915-1.943 16.355l12.053 31.454-6.284 22.195c-1.128 3.985 1.188 8.131 5.173 9.259.683.193 1.37.286 2.047.286 3.271 0 6.277-2.157 7.212-5.459l5.418-19.137h15.672c7.418 0 13.453-6.035 13.453-13.453v-34.167h62.596c8.042 0 14.585-6.542 14.585-14.584v-11.371h20.768v6.601c0 5.79 4.71 10.501 10.5 10.501h50.786c.022 0 .045-.004.068-.004.691-.006 1.531-.133 2.242-.363l50.642-16.522c5.55-1.811 9.278-6.951 9.278-12.789v-14.074h85.956c4.143 0 7.5-3.358 7.5-7.5s-3.357-7.501-7.5-7.501zm-337.058 100.225-11.1-28.965c-.44-1.15-.004-2.053.295-2.488.3-.436.986-1.166 2.218-1.166h23.225v32.62h-14.638zm106.819-73.575v-38.3h20.768v38.3zm35.767-55.401h38.787v72.502h-38.787zm93.517 56.703-39.729 12.963v-66.83l39.729 12.963z"/><path d="m184.982 349.858h-38.574c-2.941 0-5.646-1.346-7.419-3.691-1.774-2.346-2.333-5.315-1.531-8.146l15.664-55.327c1.128-3.985-1.188-8.131-5.173-9.259-3.985-1.126-8.13 1.188-9.259 5.173l-15.664 55.327c-2.093 7.394-.635 15.15 4 21.279s11.7 9.644 19.384 9.644h38.574c13.494 0 24.481 10.917 24.606 24.381h-66.08c-3.215-10.485-12.984-18.13-24.508-18.13s-21.293 7.646-24.508 18.13h-50.144v-10.786c0-.241.104-.471.287-.629l14.512-12.633c3.385.319 6.924.53 10.393.53 8.986 0 17.487-1.4 21.524-5.916 2.362-2.642 3.258-6.159 2.465-9.662-2.021-10.304-6.968-67.945 17.979-95.844 8.638-9.658 14.542-21.572 17.074-34.452 2.074-10.551-.688-21.405-7.576-29.78-7.028-8.543-17.396-13.443-28.447-13.443h-2.699c-4.594-5.606-11.493-8.949-18.918-8.949-.825 0-1.644.136-2.424.403l-29.685 10.14c-.962.329-1.794.552-2.54.681-5.452.944-10.734-.454-14.872-3.938-4.082-3.436-6.423-8.461-6.423-13.789v-37.328c0-3.151 1.207-6.134 3.398-8.398l33.26-34.374c2.219-2.293 5.321-3.608 8.512-3.608h44.092c4.142 0 7.5-3.358 7.5-7.5s-3.358-7.5-7.5-7.5h-44.092c-7.232 0-14.264 2.981-19.292 8.178l-33.259 34.373c-4.913 5.077-7.619 11.764-7.619 18.829v37.328c0 9.764 4.288 18.973 11.763 25.265 7.472 6.289 17.345 8.933 27.093 7.241 1.532-.266 3.112-.68 4.828-1.267l28.33-9.677c5.778.651 7.404 5.063 9.898 9.92 5.312 10.351 3.725 23.071-3.95 31.654-17.206 19.241-27.401 46.234-30.305 80.23-1.909 22.352-.049 41.407 1.056 49.85l-13.926 12.122c-3.456 3.008-5.438 7.361-5.438 11.943v55.249c0 8.73 7.103 15.833 15.833 15.833h163.578c8.73 0 15.833-7.103 15.833-15.833v-44.232c.001-21.842-17.769-39.612-39.611-39.612zm-95.838-115.551c10.214-11.422 13.414-27.589 8.792-42.007 4.461 1.13 8.488 3.65 11.487 7.296 4.029 4.897 5.647 11.224 4.442 17.357-2.012 10.238-6.693 19.694-13.536 27.347-29.046 32.484-23.834 90.884-21.928 105.696-3.173.631-8.985.797-15.058.443-2.179-18.538-6.507-80 25.801-116.132zm29.856 151.802c5.861 0 10.63 4.769 10.63 10.63s-4.769 10.63-10.63 10.63-10.63-4.769-10.63-10.63 4.769-10.63 10.63-10.63zm89.76 48.427h-163.576c-.459 0-.833-.374-.833-.833v-29.463h50.142c3.215 10.484 12.984 18.13 24.508 18.13s21.293-7.646 24.508-18.13h66.086v29.463c-.001.459-.375.833-.835.833z"/><path d="m200 112.592h22.5c4.142 0 7.5-3.358 7.5-7.5s-3.358-7.5-7.5-7.5h-22.5c-4.142 0-7.5 3.358-7.5 7.5s3.358 7.5 7.5 7.5z"/><path d="m200 147.43h22.5c4.142 0 7.5-3.358 7.5-7.5s-3.358-7.5-7.5-7.5h-22.5c-4.142 0-7.5 3.358-7.5 7.5s3.358 7.5 7.5 7.5z"/><path d="m88.051 96.968c-14.117 0-25.601 11.484-25.601 25.601s11.484 25.601 25.601 25.601c11.508 0 21.264-7.633 24.478-18.101h42.471c4.142 0 7.5-3.358 7.5-7.5s-3.358-7.5-7.5-7.5h-42.471c-3.214-10.468-12.97-18.101-24.478-18.101zm0 36.202c-5.845 0-10.601-4.756-10.601-10.601s4.756-10.601 10.601-10.601 10.601 4.756 10.601 10.601-4.756 10.601-10.601 10.601z"/></g></g></svg>