<svg id="Capa_1" enable-background="new 0 0 512 512" height="512" viewBox="0 0 512 512" width="512" xmlns="http://www.w3.org/2000/svg"><g clip-rule="evenodd" fill-rule="evenodd"><path d="m406.751 435.301 10.83 46.545c2.722 11.169-6.776 10.658-9.696 10.687l-124.229.198h-83.066l-15.224-38.892 97.382-55.56z" fill="#e0d2ce"/><path d="m455.654 247.674v138.134c0 27.185-22.226 49.408-49.414 49.408h-172.85l-123.577-19.899v-94.707-72.936l178.916-26.051z" fill="#fedba6"/><path d="m327.087 116.031-53.496 79.569 38.981 19.673 53.808-19.673 21.716-44.334c12.105-24.747 4.281-14.627 26.451-22.196 13.806-4.706 26.025-14.258 33.907-27.865 17.237-29.878 7.002-68.061-22.878-85.296-29.852-17.263-68.04-7.03-85.305 22.848-7.853 13.606-10.008 28.97-7.173 43.286 4.536 22.99 9.355 11.141-6.011 33.988z" fill="#b8acac"/><path d="m293.323 195.601h-183.509c-10.093 0-18.342 8.249-18.342 18.34v15.392c0 10.091 8.25 18.34 18.342 18.34h345.841c10.093 0 18.342-8.249 18.342-18.34v-15.392c0-10.091-8.25-18.34-18.342-18.34h-69.542-50.208z" fill="#e0d2ce"/><path d="m406.949 195.601c10.064 0 18.342 8.249 18.342 18.34v15.392c0 10.091-8.278 18.34-18.342 18.34h48.705c10.093 0 18.342-8.249 18.342-18.34v-15.392c0-10.091-8.25-18.34-18.342-18.34z" fill="#b8acac"/><path d="m391.867 108.548c-22.17 7.569-14.345-2.523-26.451 22.196l-32.234 64.857h33.198l21.716-44.334c12.105-24.747 4.281-14.627 26.451-22.196 13.806-4.706 26.025-14.258 33.907-27.865 17.237-29.878 7.002-68.061-22.878-85.296-.624-.397-1.276-.737-1.928-1.077 12.729 19.134 14.373 44.59 2.098 65.85-7.854 13.635-20.073 23.159-33.879 27.865z" fill="#9d9696"/></g><path d="m112.545 442.972c-.304 0-.612-.019-.922-.057l-32.177-3.94c-4.113-.504-7.039-4.245-6.535-8.356s4.25-7.03 8.36-6.532l32.177 3.94c4.113.504 7.039 4.245 6.535 8.356-.466 3.802-3.702 6.589-7.438 6.589z"/><path clip-rule="evenodd" d="m48.918 318.853c-11.822 41.812-13.693 84.417-8.023 116.364 1.814 10.262 4.394 19.418 7.654 27.1 5.472 12.841 14.345 23.188 25.146 30.416 18.824 12.614 43.46 15.761 65.885 6.236.255-.113.482-.227.737-.312 34.757-15.279 50.831-55.701 35.919-90.71-7.258-17.036-22.056-36.624-42.071-55.305-17.18-16.044-38.216-31.38-61.604-43.853-20.043-10.686-17.435-11.792-23.643 10.064z" fill="#d1f19e" fill-rule="evenodd"/><path clip-rule="evenodd" d="m134.166 352.642c20.015 18.681 34.814 38.268 42.071 55.305 14.912 35.008-1.162 75.431-35.919 90.71 2.722 1.077 5.557 1.984 8.477 2.721 37.167 9.354 74.901-13.153 84.256-50.316 8.42-33.364 1.417-89.548-22.567-141.649-9.526-20.636-6.776-19.956-24.92-6.293-7.399 5.556-14.43 11.424-21.092 17.49-11.283 10.262-21.461 21.118-30.306 32.032z" fill="#97d729" fill-rule="evenodd"/><path clip-rule="evenodd" d="m182.645 305.331c22.652 51.053 29.115 105.365 20.894 137.936-6.917 27.468-29.342 46.914-55.566 51.421-2.438 1.474-4.99 2.778-7.654 3.969 2.722 1.077 5.557 1.984 8.477 2.721 37.167 9.354 74.901-13.153 84.256-50.316 8.42-33.364 1.417-89.548-22.567-141.649-9.526-20.636-6.776-19.956-24.92-6.293-.993.737-1.957 1.474-2.92 2.211z" fill="#8bc725" fill-rule="evenodd"/><path clip-rule="evenodd" d="m46.82 326.705c20.582 11.707 39.151 25.569 54.602 39.997 20.015 18.681 34.814 38.268 42.071 55.305 9.894 23.273 6.124 48.927-7.74 68.004-3.714 5.131-8.165 9.78-13.268 13.777 5.755-.85 11.482-2.438 17.095-4.819l.737-.312c2.665-1.191 5.216-2.495 7.654-3.969 29.371-17.49 42.015-54.426 28.265-86.741-7.258-17.036-22.056-36.624-42.071-55.305-17.18-16.044-38.216-31.38-61.604-43.853-20.043-10.687-17.435-11.792-23.644 10.063-.736 2.608-1.417 5.245-2.097 7.853z" fill="#bbec6a" fill-rule="evenodd"/><path clip-rule="evenodd" d="m364.679 435.216 11.368 52.215c.425 2.041.567 3.742.425 5.131l31.412-.028c2.92-.028 12.417.482 9.696-10.687l-11.34-46.63h-41.561z" fill="#b8acac" fill-rule="evenodd"/><path clip-rule="evenodd" d="m109.814 247.674h283.386 62.455v138.134c0 27.185-22.226 49.408-49.414 49.408h-41.561c27.188 0 49.442-22.224 49.442-49.408v-89.462c0-21.685.425-21.6-23.389-21.6h-280.92v-27.072z" fill="#fec165" fill-rule="evenodd"/><path d="m455.654 188.1h-77.245l16.428-33.539c1.748-3.572 3.08-6.416 4.15-8.7 1.127-2.405 2.202-4.699 2.832-5.778.445-.097 1.034-.21 1.546-.309 2.77-.531 6.957-1.335 13.604-3.604 15.99-5.45 29.478-16.533 37.985-31.217 19.276-33.411 7.779-76.27-25.621-95.535-16.175-9.353-35.023-11.844-53.072-7.006-18.047 4.834-33.135 16.409-42.489 32.598-8.468 14.672-11.321 31.893-8.036 48.485 1.358 6.879 2.749 10.902 3.67 13.565.171.494.368 1.063.507 1.499-.615 1.076-2.049 3.129-3.55 5.281-1.453 2.082-3.261 4.673-5.503 8.007l-51.266 76.253h-159.78c-14.251 0-25.845 11.592-25.845 25.841v15.392c0 11.641 7.739 21.504 18.342 24.727v63.892c-8.449-5.684-17.232-10.99-26.217-15.779-1.802-.961-3.417-1.843-4.872-2.637-8.175-4.462-13.11-7.158-18.604-4.82-5.494 2.335-6.977 7.758-9.434 16.74-.438 1.601-.924 3.381-1.485 5.354-6.473 22.848-10.344 47.319-11.194 70.768-.15 4.14 3.086 7.616 7.227 7.767 4.15.1 7.619-3.084 7.77-7.224.806-22.268 4.484-45.513 10.634-67.218.574-2.021 1.074-3.848 1.523-5.491.513-1.877 1.036-3.788 1.5-5.317 1.424.727 3.162 1.676 4.871 2.607 1.493.815 3.152 1.721 5.002 2.707 12.955 6.905 24.847 14.496 35.607 22.417.46.439.973.821 1.532 1.132 8.089 6.038 15.521 12.257 22.25 18.505.305.362.645.702 1.027 1.011.063.051.129.092.193.141 19.791 18.622 33.371 37.405 39.694 52.272 12.379 29.052.723 62.398-25.975 77.809l-9.733-22.852 16.886-22.463c2.489-3.312 1.822-8.014-1.491-10.502-3.313-2.489-8.017-1.821-10.506 1.49l-11.678 15.535-18.795-44.128c-1.623-3.813-6.03-5.585-9.842-3.963-3.813 1.622-5.588 6.027-3.964 9.838l35.318 82.92c-29.602 8.547-61.719-6.157-74.095-35.179-4.041-9.533-7.04-21.825-8.672-35.547-.489-4.113-4.217-7.05-8.337-6.562-4.115.489-7.054 4.22-6.565 8.333 1.823 15.322 5.105 28.655 9.762 39.643 12.451 29.196 40.959 46.745 70.88 46.743 9.319-.001 18.776-1.73 27.925-5.314 2.211.768 4.392 1.43 6.511 1.965 6.274 1.579 12.62 2.359 18.926 2.359 13.633-.001 27.065-3.655 39.088-10.779h78.69l124.291-.198.366-.002c2.721-.003 9.949-.013 14.334-5.599 2.892-3.684 3.636-8.516 2.214-14.357l-9.276-38.141c26.947-4.476 47.562-27.934 47.562-56.126v-131.75c10.603-3.222 18.343-13.086 18.343-24.727v-15.392c-.002-14.249-11.597-25.841-25.848-25.841zm-122.34-67.885c2.169-3.227 3.936-5.759 5.357-7.793 6.127-8.779 7.975-11.429 4.918-20.266-.833-2.407-1.974-5.704-3.131-11.569-2.581-13.033-.34-26.557 6.309-38.078 7.349-12.717 19.202-21.811 33.377-25.608 14.174-3.798 28.974-1.843 41.681 5.506 26.241 15.136 35.272 48.804 20.135 75.041-6.682 11.534-17.278 20.244-29.839 24.525-5.66 1.933-9.086 2.59-11.588 3.07-9.191 1.765-10.57 4.707-15.137 14.455-1.046 2.234-2.349 5.014-4.04 8.47l-19.656 40.132h-74.026zm-173.569 375.485c26.762-20.928 37.325-58.001 23.398-90.687-7.253-17.053-21.002-35.475-38.764-52.911 13.411-15.731 29.093-30.501 45.701-42.99 1.67-1.258 3.165-2.406 4.511-3.44 1.545-1.188 3.118-2.396 4.413-3.335.696 1.439 1.508 3.246 2.307 5.021.7 1.557 1.478 3.287 2.357 5.191 25.255 54.861 29.301 108.177 22.106 136.684-4.034 16.025-14.074 29.519-28.27 37.992-11.516 6.876-24.65 9.78-37.759 8.475zm248.559-10.669-124.65.2h-60.428c8.145-9.127 14.029-20.136 17.099-32.334.816-3.235 1.483-6.641 2.022-10.181h157.995l9.948 40.904c.135.552.205.983.239 1.31-.766.099-1.762.101-2.225.101zm58.19-255.698c0 5.978-4.862 10.841-10.839 10.841h-149.83c-4.144 0-7.503 3.357-7.503 7.5s3.359 7.5 7.503 7.5h142.326v130.634c0 23.108-18.801 41.908-41.911 41.908h-162.459c1.615-35.741-8.002-81.297-26.484-121.445-.859-1.862-1.617-3.548-2.299-5.064-3.819-8.494-6.125-13.621-11.915-15.077-5.791-1.459-10.25 1.971-17.638 7.648-1.311 1.007-2.768 2.126-4.391 3.349-17.298 13.008-33.651 28.376-47.679 44.754-5.119-4.505-10.486-8.906-16.059-13.161v-73.546h150.264c4.144 0 7.503-3.357 7.503-7.5s-3.359-7.5-7.503-7.5h-157.767c-5.977 0-10.839-4.863-10.839-10.841v-15.392c0-5.978 4.862-10.841 10.839-10.841h163.753.071 92.703c.012 0 .023.002.035.002.01 0 .019-.002.028-.002h89.251c5.977 0 10.839 4.863 10.839 10.841v15.392z"/></svg>